<?xml version="1.0" encoding="utf-8"?>
<!-- Generator: Adobe Illustrator 27.5.0, SVG Export Plug-In . SVG Version: 6.00 Build 0)  -->
<svg version="1.1" xmlns="http://www.w3.org/2000/svg" xmlns:xlink="http://www.w3.org/1999/xlink" x="0px" y="0px"
	 viewBox="0 0 500 500" style="enable-background:new 0 0 500 500;" xml:space="preserve">
<g id="BACKGROUND_2">
</g>
<g id="BACKGROUND_1">
	
		<radialGradient id="SVGID_1_" cx="374.5842" cy="250" r="739.7019" gradientTransform="matrix(0.6667 0 0 0.5162 0.2647 120.9415)" gradientUnits="userSpaceOnUse">
		<stop  offset="0" style="stop-color:#FFFFFF"/>
		<stop  offset="0.2283" style="stop-color:#FFFFFF"/>
		<stop  offset="0.4566" style="stop-color:#F4F4F4"/>
		<stop  offset="0.7032" style="stop-color:#C3C1C0"/>
		<stop  offset="0.9954" style="stop-color:#6B6A6A"/>
	</radialGradient>
	<rect style="fill:url(#SVGID_1_);" width="500" height="500"/>
	<path style="opacity:0.1;" d="M69.446,312.94c-8.532-3.988-22.95,0.078-37.096,6.69c-9.1-4.567-19.466-10.054-32.351-7.068v5.023
		c5.823-0.116,11.701,1.012,15.601,2.938c2.61,1.286,4.951,2.636,7.308,3.891c-1.073,0.582-2.144,1.175-3.191,1.776
		c-1.486,0.846-3.098,1.688-4.796,2.515c-0.995-1.3-2.436-2.459-4.411-3.378c-3.851-1.807-7.401-2.443-10.51-2.295v5.157
		c3.229,0.251,5.626,1.965,6.627,4.199c-2.159,0.882-4.383,1.736-6.627,2.566v2.113c2.387-0.97,4.769-1.95,7.107-2.94
		c0.236,2.001-0.573,4.191-2.738,6.017c-1.114,0.94-2.636,1.746-4.369,2.335v5.908c11.17-1.27,19.058-11.022,15.885-18.061
		c3.55-1.568,6.892-3.07,9.893-4.449c6.331,3.054,13.408,5.067,25.955,3.304C70.96,326.464,80.567,318.139,69.446,312.94z
		 M45.442,324.627c-3.135-0.442-6.369-1.752-9.76-3.365c2.835-1.351,4.491-2.167,4.491-2.167s13.705-5.081,20.1-2.231
		C66.659,319.715,58.405,326.496,45.442,324.627z"/>
	<path style="opacity:0.2;fill:none;stroke:#000000;stroke-width:0.5653;stroke-miterlimit:10;" d="M0,161.542
		c0,0,77.517-34.313,139.695,19.063c62.178,53.376,96.623,142.798,213.036,91.149c39.888-17.698,82.563-74.627,146.933-110.211"/>
	<path style="opacity:0.5;fill:none;stroke:#000000;stroke-width:0.5653;stroke-miterlimit:10;" d="M0,181.876
		c0,0,77.517-34.314,139.695,19.063c62.178,53.376,108.608,133.831,223.229,76.283c47.906-24.054,72.37-59.761,136.739-95.345"/>
	<path style="opacity:0.8;fill:none;stroke:#000000;stroke-width:0.5653;stroke-miterlimit:10;" d="M0,211.703
		c0,0,77.517-28.052,139.695,15.585c62.178,43.636,106.816,106.248,223.229,64.022c39.887-14.468,72.37-50.516,136.739-79.607"/>
	<path style="opacity:0.5;fill:none;stroke:#000000;stroke-width:0.5653;stroke-miterlimit:10;" d="M0,230.927
		c0,0,77.517-24.864,139.695,13.813c62.178,38.679,106.816,94.174,223.229,56.747c39.887-12.824,72.37-44.775,136.739-70.561"/>
	<path style="opacity:0.3;fill:none;stroke:#000000;stroke-width:0.5653;stroke-miterlimit:10;" d="M0,255.935
		c0,0,77.517-19.817,139.695,11.01C201.873,297.771,246.51,342,362.924,312.171c39.887-10.222,72.37-35.685,136.739-56.236"/>
	<path style="opacity:0.4;" d="M469.525,308.851l-12.977-11.759l-14.227,14.441c-0.143-1.221-0.84-2.583-1.914-3.551
		c-1.721-1.549-3.881-1.691-4.825-0.318c-0.943,1.373-0.314,3.742,1.408,5.292c1.72,1.55,4.003,1.881,4.947,0.507l12.355-11.771
		l9.679,9.984l-11.622,10.896c-0.083-1.273-0.758-2.725-1.871-3.728c-1.722-1.55-3.881-1.692-4.824-0.318
		c-0.944,1.373-0.315,3.743,1.406,5.292c1.532,1.38,3.451,1.841,4.519,0.955l0.041,0.071L469.525,308.851z"/>
	<path style="opacity:0.4;" d="M86.657,136.388l-19.861,39.589l29.283,38.967c-2.257,0.611-4.688,2.856-6.322,6.136
		c-2.615,5.247-2.531,11.541,0.188,14.06c2.718,2.517,7.042,0.306,9.658-4.945c2.615-5.245,2.865-11.931,0.145-14.447L75.754,181.78
		l17.081-29.722l22.239,31.982c-2.363,0.446-4.966,2.639-6.659,6.037c-2.617,5.249-2.533,11.542,0.186,14.061
		c2.72,2.517,7.042,0.305,9.658-4.943c2.33-4.673,2.879-10.319,1.052-13.277l0.126-0.133L86.657,136.388z"/>
	<path style="opacity:0.4;" d="M160.399,232.317l-12.977-11.759l-14.226,14.441c-0.143-1.221-0.839-2.583-1.915-3.55
		c-1.721-1.549-3.88-1.692-4.824-0.319c-0.943,1.374-0.314,3.743,1.408,5.292c1.72,1.549,4.003,1.881,4.947,0.507l12.355-11.771
		l9.679,9.983l-11.622,10.897c-0.083-1.273-0.756-2.724-1.871-3.728c-1.721-1.55-3.88-1.693-4.824-0.319
		c-0.943,1.373-0.314,3.743,1.406,5.292c1.533,1.38,3.451,1.84,4.519,0.956l0.043,0.071L160.399,232.317z"/>
	<path style="opacity:0.4;" d="M0,200.732v4.156l12.409-11.823l20.649,21.299L8.262,237.613c-0.176-2.716-1.613-5.811-3.992-7.953
		c-1.355-1.221-2.837-2.03-4.27-2.421v15.086c2.492,1.212,5.009,1.318,6.619-0.017l0.091,0.152l38.197-34.124L17.221,183.25
		L0,200.732z"/>
	<path style="opacity:0.4;" d="M235.777,303.427l-7.561-6.851l-8.289,8.413c-0.083-0.711-0.488-1.504-1.115-2.068
		c-1.003-0.903-2.261-0.985-2.811-0.185c-0.549,0.801-0.184,2.181,0.82,3.084c1.001,0.902,2.331,1.096,2.882,0.296l7.198-6.859
		l5.639,5.817l-6.771,6.348c-0.048-0.741-0.44-1.587-1.089-2.171c-1.003-0.903-2.261-0.987-2.812-0.186
		c-0.549,0.801-0.183,2.181,0.82,3.084c0.893,0.803,2.011,1.072,2.633,0.556l0.024,0.043L235.777,303.427z"/>
	<path style="opacity:0.15;" d="M386.66,236.911l-8.014,2.457l-0.169,11.766c-0.432-0.336-1.092-0.447-1.755-0.24
		c-1.059,0.329-1.821,1.34-1.701,2.258c0.12,0.918,1.076,1.396,2.135,1.067c1.06-0.328,1.923-1.337,1.804-2.256l0.388-9.962
		l6.36-1.429l-0.422,9.312c-0.429-0.381-1.11-0.533-1.797-0.319c-1.06,0.329-1.82,1.339-1.701,2.258
		c0.12,0.918,1.076,1.395,2.136,1.066c0.943-0.293,1.726-1.08,1.802-1.897l0.035,0.003L386.66,236.911z"/>
	<path style="opacity:0.15;" d="M306.884,317.551l-8.014,2.456l-0.169,11.765c-0.432-0.335-1.092-0.445-1.755-0.239
		c-1.059,0.329-1.821,1.34-1.701,2.258c0.12,0.918,1.076,1.397,2.136,1.067c1.059-0.329,1.922-1.338,1.803-2.256l0.389-9.963
		l6.359-1.43l-0.422,9.313c-0.429-0.382-1.11-0.532-1.797-0.319c-1.06,0.329-1.82,1.34-1.701,2.259
		c0.12,0.918,1.076,1.396,2.136,1.067c0.943-0.293,1.725-1.081,1.801-1.898l0.036,0.004L306.884,317.551z"/>
	<path style="opacity:0.15;" d="M222.985,259.313l-3.266-9.45l-9.335,1.734c0.195-0.587,0.173-1.417-0.1-2.198
		c-0.435-1.248-1.361-2.019-2.068-1.719c-0.706,0.299-0.927,1.552-0.491,2.802c0.435,1.248,1.376,2.143,2.082,1.844l7.946-1.166
		l2.18,7.586l-7.436,1.017c0.23-0.59,0.237-1.453-0.044-2.261c-0.436-1.249-1.361-2.019-2.068-1.72
		c-0.706,0.299-0.927,1.553-0.491,2.802c0.387,1.112,1.139,1.943,1.798,1.901l0.003,0.046L222.985,259.313z"/>
	<path style="opacity:0.05;" d="M48.888,285.999l-32.572,12.548l1.59,48.564c-1.847-1.254-4.596-1.508-7.286-0.461
		c-4.301,1.677-7.249,6.077-6.575,9.826c0.67,3.75,4.704,5.433,9.011,3.758c4.304-1.679,7.665-6.101,6.994-9.849l-0.33-41.198
		l25.948-7.81l0.065,38.521c-1.84-1.439-4.677-1.857-7.468-0.775c-4.307,1.68-7.249,6.077-6.575,9.831
		c0.671,3.749,4.705,5.429,9.011,3.752c3.834-1.49,6.903-4.975,7.058-8.366l0.15,0.001L48.888,285.999z"/>
	<path style="opacity:0.15;" d="M49.549,182.651l27.436-33.244l-21.438-47.549c2.358,0.083,5.207-1.409,7.469-4.167
		c3.617-4.412,4.766-10.685,2.559-14.005c-2.204-3.323-6.925-2.443-10.546,1.971c-3.617,4.411-5.17,10.968-2.966,14.291
		l17.17,40.982l-22.752,24.301l-15.814-38.476c2.43,0.269,5.438-1.117,7.785-3.971c3.62-4.417,4.764-10.683,2.558-14.009
		c-2.205-3.323-6.924-2.439-10.545,1.975c-3.223,3.926-4.869,9.361-3.636,12.852l-0.153,0.092L49.549,182.651z"/>
	<path style="opacity:0.8;" d="M464.582,190.306l-9.672-7.655l-9.62,11.088c-0.146-0.862-0.69-1.794-1.491-2.423
		c-1.282-1.009-2.826-0.989-3.45,0.042c-0.623,1.032-0.089,2.686,1.193,3.694c1.282,1.008,2.92,1.116,3.545,0.084l6.617-7.17
		l7.241,6.561l-6.111,6.518c-0.105-0.902-0.639-1.898-1.467-2.552c-1.282-1.008-2.827-0.989-3.451,0.042
		c-0.622,1.032-0.089,2.686,1.193,3.694c1.142,0.898,2.525,1.118,3.256,0.428l0.031,0.048L464.582,190.306z M452.795,186.785
		l0.674-0.729l7.257,6.574l-0.556,0.591L452.795,186.785z"/>
	<path style="opacity:0.8;" d="M111.251,158.666l-20.987-16.609l-20.875,24.06c-0.316-1.871-1.499-3.893-3.237-5.258
		c-2.782-2.188-6.134-2.146-7.486,0.091c-1.351,2.24-0.191,5.828,2.589,8.015c2.781,2.187,6.339,2.423,7.692,0.184l14.359-15.558
		l15.715,14.236l-13.264,14.144c-0.227-1.958-1.383-4.12-3.184-5.537c-2.782-2.188-6.133-2.146-7.486,0.093
		c-1.353,2.239-0.193,5.827,2.59,8.015c2.476,1.947,5.479,2.426,7.063,0.929l0.071,0.105L111.251,158.666z M85.673,151.027
		l1.462-1.583l15.746,14.265l-1.204,1.282L85.673,151.027z"/>
	<path style="opacity:0.05;" d="M476.189,105.289l-5.255,12.691l9.714,10.961c-0.677,0.257-1.372,1.017-1.805,2.068
		c-0.691,1.682-0.538,3.599,0.342,4.281c0.879,0.682,2.153-0.128,2.844-1.81c0.69-1.681,0.633-3.727-0.247-4.409l-6.316-7.581
		l4.597-9.577l5.752,7.011c-0.712,0.21-1.46,0.961-1.908,2.049c-0.691,1.682-0.539,3.599,0.34,4.281
		c0.881,0.682,2.154-0.128,2.845-1.811c0.616-1.497,0.669-3.236,0.054-4.08l0.035-0.045L476.189,105.289z M474.425,120.241
		l-0.643-0.772l4.607-9.597l0.522,0.637L474.425,120.241z"/>
	<path style="opacity:0.05;" d="M92.608,83.643l-13.877,33.513l25.649,28.942c-1.785,0.679-3.622,2.686-4.762,5.459
		c-1.827,4.442-1.422,9.503,0.9,11.304c2.323,1.8,5.686-0.339,7.511-4.779c1.824-4.439,1.67-9.841-0.653-11.643l-16.678-20.019
		l12.139-25.287l15.185,18.514c-1.878,0.555-3.855,2.536-5.038,5.409c-1.825,4.441-1.423,9.503,0.899,11.304
		c2.323,1.802,5.687-0.338,7.512-4.779c1.626-3.953,1.765-8.545,0.139-10.774l0.094-0.119L92.608,83.643z M87.949,123.123
		l-1.697-2.039l12.165-25.339l1.377,1.681L87.949,123.123z"/>
	<path d="M439.801,286.164l-12.379,12.928c-0.137-1.072-0.764-2.261-1.721-3.096c-1.529-1.337-3.431-1.429-4.248-0.206
		c-0.817,1.223-0.239,3.3,1.29,4.636c1.53,1.338,3.544,1.595,4.359,0.371l10.759-10.55l2.772,2.78l2.121-2.215l0.532-0.556
		l0.533-0.557L439.801,286.164z"/>
	<path d="M291.422,279.558l-12.378,12.929c-0.138-1.073-0.764-2.261-1.72-3.096c-1.53-1.337-3.432-1.429-4.249-0.207
		c-0.817,1.224-0.239,3.3,1.29,4.637c1.53,1.338,3.543,1.595,4.36,0.371l10.758-10.551l2.773,2.781l2.121-2.215l0.531-0.557
		l0.532-0.557L291.422,279.558z"/>
	<path d="M380.834,292.71l12.217,11.182c-0.755,0.396-1.483,1.372-1.88,2.646c-0.637,2.038-0.278,4.219,0.797,4.875
		c1.077,0.656,2.467-0.465,3.101-2.502c0.637-2.035,0.376-4.383-0.702-5.037l-10.114-9.871l1.413-3.773l-2.093-1.916l-0.525-0.48
		l-0.525-0.481L380.834,292.71z"/>
	<path d="M70.001,213.552l30.761,28.159c-1.897,0.997-3.732,3.457-4.732,6.661c-1.603,5.132-0.702,10.627,2.007,12.277
		c2.712,1.651,6.212-1.17,7.81-6.301c1.604-5.126,0.947-11.036-1.767-12.685l-25.47-24.858l3.56-9.5l-5.269-4.823l-1.324-1.211
		l-1.322-1.211L70.001,213.552z"/>
	<path d="M489.814,296.576l-0.866-0.831l-10.02,9.78c-0.086-0.85-0.556-1.805-1.29-2.494c-1.176-1.104-2.673-1.238-3.342-0.301
		c-0.67,0.936-0.258,2.59,0.919,3.692c1.177,1.104,2.756,1.372,3.425,0.434L489.814,296.576z"/>
	<path style="opacity:0.15;" d="M491.059,270.607l-1.091,0.088l-2.364,15.589c-0.515-0.567-1.373-0.901-2.289-0.816
		c-1.469,0.139-2.666,1.266-2.673,2.521c-0.008,1.255,1.175,2.161,2.644,2.022c1.469-0.137,2.798-1.234,2.807-2.488L491.059,270.607
		z"/>
	<path style="opacity:0.15;" d="M380.113,283.706l-1.486-2.358l-25.628,14.071c0.189-1.869-0.396-4.226-1.661-6.192
		c-2.03-3.148-5.162-4.451-6.996-2.904c-1.835,1.544-1.68,5.35,0.351,8.496c2.027,3.154,5.28,4.792,7.115,3.247L380.113,283.706z"/>
	<path style="opacity:0.15;" d="M431.357,176.431l-1.091,0.088l-2.365,15.589c-0.514-0.568-1.372-0.901-2.289-0.816
		c-1.468,0.138-2.664,1.266-2.672,2.52c-0.008,1.255,1.175,2.161,2.644,2.023c1.469-0.136,2.799-1.234,2.806-2.488L431.357,176.431z
		"/>
	<path style="opacity:0.15;" d="M201.271,205.271l-1.091,0.088l-2.365,15.589c-0.513-0.568-1.372-0.901-2.288-0.817
		c-1.469,0.138-2.665,1.267-2.673,2.521c-0.008,1.255,1.176,2.161,2.644,2.022c1.469-0.137,2.798-1.234,2.806-2.488L201.271,205.271
		z"/>
	<path style="opacity:0.1;" d="M118.136,176.482l2.354,0.588l16.027-31.084c0.676,1.559,2.244,2.868,4.23,3.341
		c3.185,0.751,6.501-0.771,7.405-3.402c0.907-2.632-0.938-5.375-4.121-6.125c-3.185-0.755-6.756,0.609-7.661,3.239L118.136,176.482z
		"/>
	<path style="opacity:0.15;" d="M435.55,326.257l-0.596,1.143l8.619,11.674c-0.671,0.173-1.399,0.833-1.892,1.8
		c-0.787,1.552-0.775,3.423,0.026,4.178c0.803,0.757,2.092,0.115,2.879-1.437c0.79-1.551,0.877-3.535,0.074-4.292L435.55,326.257z"
		/>
	<path style="opacity:0.15;" d="M29.959,295.751l-2.851,5.475l41.285,55.914c-3.219,0.831-6.7,3.99-9.059,8.626
		c-3.774,7.428-3.722,16.393,0.121,20.009c3.846,3.625,10.021,0.548,13.793-6.881c3.783-7.429,4.201-16.933,0.358-20.558
		L29.959,295.751z"/>
	<path style="opacity:0.15;" d="M333.722,291.879l-1.093,0.087l-2.363,15.59c-0.514-0.569-1.372-0.901-2.288-0.816
		c-1.47,0.137-2.666,1.266-2.673,2.52c-0.008,1.256,1.176,2.161,2.643,2.023c1.469-0.137,2.798-1.234,2.806-2.488L333.722,291.879z"
		/>
	<path style="opacity:0.7;" d="M413.996,200.745l-1.324,1.492l9.659,22.919c-1.118-0.078-2.486,0.581-3.59,1.849
		c-1.764,2.033-2.376,4.99-1.364,6.602c1.01,1.613,3.26,1.275,5.023-0.758c1.767-2.032,2.572-5.115,1.563-6.729L413.996,200.745z"/>
	<path d="M452.424,207.364l-0.088,2.57l22.98,8.688c-0.958,1.085-1.634,3.025-1.69,5.188c-0.091,3.462,1.365,6.49,3.251,6.762
		c1.888,0.272,3.489-2.314,3.579-5.776c0.091-3.462-1.292-6.795-3.178-7.068L452.424,207.364z"/>
	<path d="M150.135,211.565l2.048-0.312l3.104-29.69c1.016,1.002,2.661,1.514,4.382,1.229c2.754-0.457,4.911-2.744,4.817-5.108
		c-0.094-2.365-2.403-3.912-5.157-3.455c-2.755,0.457-5.165,2.703-5.071,5.067L150.135,211.565z"/>
	<path d="M34.74,206.245l-3.913,0.596l-5.93,56.72c-1.941-1.913-5.085-2.892-8.372-2.348c-5.262,0.874-9.382,5.244-9.202,9.76
		c0.179,4.518,4.59,7.474,9.852,6.6c5.263-0.873,9.868-5.165,9.688-9.682L34.74,206.245z"/>
	<path d="M170.664,276.741l-0.575-2.47l-24.003,0.943c0.629-1.412,0.771-3.519,0.27-5.591c-0.805-3.315-2.962-5.602-4.817-5.107
		c-1.857,0.494-2.711,3.584-1.907,6.899c0.803,3.316,2.969,5.923,4.825,5.429L170.664,276.741z"/>
	<path style="opacity:0.05;" d="M120.848,275.922l-2.858-2.958l-35.002,31.601c-0.203-2.895-1.698-6.215-4.121-8.67
		c-3.883-3.93-8.947-4.624-11.311-1.551c-2.368,3.073-1.141,8.751,2.74,12.681c3.881,3.931,9.217,5.091,11.582,2.018
		L120.848,275.922z"/>
	<path style="opacity:0.4;" d="M454.528,220.72l-13.826,9.711c0.022-1.067-0.412-2.355-1.214-3.376
		c-1.285-1.636-3.109-2.152-4.076-1.153c-0.965,0.997-0.707,3.133,0.577,4.769c1.285,1.635,3.192,2.335,4.158,1.337l9.41-6.142
		l0.94,1.368l1.537-1.079l-0.929-1.301l0.958-0.626l2.278,3.31l2.367-1.663l0.596-0.418l0.596-0.418L454.528,220.72z"/>
	<path style="opacity:0.4;" d="M364.25,277.778l-3.24,31.94c-1.096-1.071-2.866-1.614-4.716-1.299
		c-2.959,0.507-5.271,2.976-5.162,5.519c0.108,2.541,2.598,4.193,5.558,3.689c2.96-0.507,5.542-2.935,5.436-5.477l2.693-21.284
		l2.348-0.204l0.361-3.551l-2.264,0.251l0.274-2.166l5.677-0.499l0.555-5.471l0.14-1.376l0.138-1.375L364.25,277.778z"/>
	<path style="opacity:0.4;" d="M247.094,280.513l16.661,10.5c-0.852,0.671-1.577,2.043-1.854,3.69
		c-0.44,2.636,0.349,5.196,1.763,5.723c1.415,0.524,2.921-1.189,3.362-3.824c0.441-2.638-0.257-5.419-1.672-5.944l-10.973-7.451
		l0.457-2.044l-1.852-1.167l-0.411,1.982l-1.118-0.758l1.105-4.942l-2.854-1.799l-0.717-0.452l-0.718-0.452L247.094,280.513z"/>
	<path d="M452.336,246.486l7.619,12.15c-0.661,0.103-1.407,0.671-1.944,1.563c-0.861,1.426-0.967,3.239-0.236,4.05
		c0.729,0.812,2.019,0.315,2.879-1.111c0.862-1.426,1.071-3.341,0.342-4.151l-4.968-8.445l5.522-7.955l4.493,7.768
		c-0.685,0.06-1.471,0.607-2.025,1.524c-0.86,1.426-0.965,3.239-0.235,4.05c0.73,0.813,2.02,0.314,2.881-1.111
		c0.767-1.271,1.04-2.876,0.576-3.787l0.039-0.034l-5.113-9.297l5.563-8.012l4.191,7.861c-0.689,0.021-1.5,0.53-2.085,1.426
		c-0.904,1.383-1.065,3.191-0.361,4.036c0.705,0.846,2.008,0.41,2.913-0.974c0.806-1.232,1.128-2.825,0.692-3.756l0.04-0.032
		l-7.937-15.653L452.336,246.486z M460.713,241.143l-5.484,8.04l-0.438-0.744l5.477-8.068L460.713,241.143z M461.348,240.213
		l-0.436-0.793l5.529-8.146l0.44,0.828L461.348,240.213z"/>
	<path d="M104.362,264.4l0.888,22.604c-0.862-0.576-2.141-0.682-3.392-0.181c-2,0.802-3.356,2.864-3.031,4.606
		c0.324,1.741,2.208,2.507,4.206,1.706c2.001-0.801,3.55-2.876,3.226-4.618l-0.225-15.362l12.018-3.711l0.116,14.054
		c-0.863-0.652-2.177-0.827-3.463-0.313c-1.999,0.804-3.355,2.865-3.031,4.608c0.326,1.744,2.209,2.507,4.21,1.705
		c1.779-0.715,3.199-2.35,3.26-3.931h0.07l0.18-16.538l12.104-3.736l-0.308,13.844c-0.842-0.702-2.159-0.945-3.468-0.489
		c-2.022,0.704-3.442,2.701-3.171,4.458c0.271,1.758,2.129,2.61,4.153,1.905c1.8-0.628,3.269-2.195,3.378-3.772l0.07,0.004
		l1.108-27.136L104.362,264.4z M118.03,266.833l-12.032,3.852l-0.02-1.354l12.04-3.895L118.03,266.833z M119.421,266.388
		l0.016-1.412l12.157-3.931l-0.034,1.457L119.421,266.388z"/>
	<path d="M163.489,227.464l7.62,12.15c-0.662,0.103-1.407,0.671-1.945,1.563c-0.861,1.426-0.966,3.239-0.237,4.05
		c0.73,0.812,2.02,0.314,2.88-1.112c0.861-1.425,1.07-3.341,0.34-4.152l-4.967-8.444l5.522-7.954l4.495,7.768
		c-0.686,0.06-1.472,0.606-2.026,1.523c-0.86,1.426-0.966,3.24-0.236,4.051c0.731,0.811,2.02,0.313,2.881-1.112
		c0.767-1.27,1.041-2.876,0.576-3.788l0.039-0.033l-5.112-9.297l5.563-8.012l4.191,7.861c-0.689,0.02-1.5,0.53-2.085,1.426
		c-0.904,1.383-1.066,3.19-0.361,4.036c0.704,0.846,2.009,0.41,2.913-0.973c0.805-1.233,1.128-2.825,0.692-3.756l0.04-0.032
		l-7.936-15.653L163.489,227.464z M171.867,222.121l-5.485,8.04l-0.438-0.744l5.476-8.068L171.867,222.121z M172.502,221.191
		l-0.437-0.793l5.531-8.146l0.44,0.828L172.502,221.191z"/>
	<path d="M291.154,316.743l-3.538-12.912c0.576,0.153,1.332-0.051,1.989-0.601c1.052-0.88,1.561-2.357,1.141-3.299
		c-0.421-0.943-1.615-0.995-2.666-0.114c-1.053,0.879-1.673,2.403-1.252,3.346l2.185,8.856l-6.468,4.647l-1.947-8.119
		c0.589,0.198,1.373,0.027,2.048-0.539c1.052-0.88,1.563-2.357,1.143-3.3c-0.422-0.943-1.615-0.993-2.667-0.114
		c-0.936,0.784-1.54,2.028-1.363,2.956l-0.041,0.015l2.106,9.62l-6.515,4.684l-1.673-8.088c0.582,0.232,1.378,0.1,2.075-0.437
		c1.078-0.83,1.634-2.281,1.241-3.242c-0.392-0.963-1.582-1.07-2.66-0.241c-0.96,0.737-1.602,1.951-1.454,2.888l-0.04,0.013
		l2.986,15.955L291.154,316.743z M282.908,318.176l6.456-4.732l0.192,0.78l-6.455,4.76L282.908,318.176z M282.16,318.724l0.181,0.82
		l-6.521,4.807l-0.175-0.852L282.16,318.724z"/>
	<path d="M48.826,169.246l-6.391-23.322c1.042,0.276,2.406-0.092,3.594-1.086c1.898-1.589,2.821-4.257,2.06-5.959
		c-0.762-1.702-2.917-1.795-4.816-0.205c-1.899,1.588-3.02,4.342-2.26,6.043l3.946,15.996l-11.682,8.395l-3.516-14.665
		c1.06,0.359,2.478,0.048,3.698-0.974c1.898-1.59,2.822-4.259,2.062-5.96c-0.762-1.704-2.918-1.794-4.817-0.206
		c-1.691,1.416-2.781,3.661-2.464,5.339l-0.073,0.026l3.807,17.376l-11.768,8.457l-3.02-14.607c1.051,0.42,2.488,0.182,3.748-0.789
		c1.946-1.497,2.951-4.119,2.243-5.856c-0.707-1.738-2.859-1.933-4.806-0.436c-1.733,1.332-2.891,3.526-2.627,5.216l-0.073,0.023
		l5.394,28.817L48.826,169.246z M33.931,171.833l11.663-8.549l0.348,1.409l-11.661,8.597L33.931,171.833z M32.583,172.822
		l0.324,1.48l-11.775,8.682l-0.316-1.539L32.583,172.822z"/>
	<path d="M219.794,259.481l-5.337,13.914c-0.369-0.693-1.107-1.273-1.987-1.478c-1.407-0.326-2.756,0.362-3.014,1.539
		c-0.258,1.176,0.673,2.395,2.08,2.721c1.407,0.327,2.875-0.29,3.133-1.467l3.856-9.304l8.17,2.627l-3.581,8.474
		c-0.348-0.738-1.09-1.374-1.995-1.584c-1.407-0.325-2.757,0.363-3.015,1.538c-0.257,1.178,0.675,2.395,2.081,2.723
		c1.254,0.29,2.529-0.118,2.977-1.041l0.042,0.028l4.403-9.845l8.23,2.647l-3.781,8.178c-0.322-0.761-1.048-1.44-1.952-1.694
		c-1.396-0.393-2.766,0.229-3.06,1.393c-0.294,1.163,0.599,2.425,1.995,2.819c1.244,0.351,2.531,0.004,3.006-0.897l0.042,0.03
		l7.712-15.826L219.794,259.481z M227.36,266.459l-8.215-2.548l0.339-0.82l8.232,2.525L227.36,266.459z M228.311,266.753
		l0.375-0.839l8.312,2.55l-0.399,0.86L228.311,266.753z"/>
	<path d="M324.116,277.291l-0.986,9.225c-0.314-0.311-0.827-0.474-1.362-0.386c-0.856,0.139-1.528,0.847-1.502,1.581
		c0.029,0.735,0.745,1.219,1.602,1.08c0.855-0.139,1.607-0.834,1.579-1.57l0.826-6.233l5.081-0.387l-0.791,5.695
		c-0.31-0.344-0.831-0.536-1.382-0.448c-0.855,0.141-1.528,0.848-1.501,1.583c0.028,0.734,0.744,1.219,1.602,1.079
		c0.763-0.124,1.434-0.653,1.552-1.288l0.029,0.008l1.058-6.673l5.119-0.389l-0.95,5.57c-0.3-0.361-0.817-0.583-1.373-0.52
		c-0.86,0.099-1.553,0.773-1.549,1.51c0.005,0.735,0.706,1.253,1.565,1.156c0.767-0.088,1.453-0.586,1.592-1.213l0.027,0.008
		l2.066-10.873L324.116,277.291z M329.501,279.542l-5.097,0.443l0.073-0.55l5.103-0.46L329.501,279.542z M330.089,279.492
		l0.091-0.57l5.152-0.463l-0.102,0.586L330.089,279.492z"/>
	<path style="opacity:0.4;" d="M407.599,232.91l-8.563,11.132c-0.176-0.802-0.733-1.642-1.517-2.178
		c-1.254-0.859-2.711-0.732-3.25,0.285c-0.539,1.017,0.039,2.537,1.293,3.396c1.254,0.86,2.804,0.846,3.345-0.171l5.996-7.331
		l7.102,5.683l-5.528,6.651c-0.145-0.837-0.69-1.731-1.497-2.284c-1.254-0.858-2.709-0.731-3.25,0.285
		c-0.54,1.017,0.039,2.538,1.293,3.396c1.117,0.766,2.432,0.876,3.089,0.173l0.032,0.044l6.653-7.632l7.152,5.725l-5.645,6.292
		c-0.113-0.849-0.634-1.776-1.429-2.371c-1.226-0.919-2.685-0.861-3.255,0.129c-0.572,0.99-0.04,2.536,1.188,3.456
		c1.092,0.817,2.401,0.99,3.079,0.321l0.031,0.044l11.298-12.021L407.599,232.91z M413.032,242.488l-7.163-5.625l0.527-0.646
		l7.184,5.61L413.032,242.488z M413.859,243.139l0.568-0.651l7.255,5.666l-0.596,0.661L413.859,243.139z"/>
	<path style="opacity:0.4;" d="M177.729,254.868l-2.247,15.168c-0.5-0.55-1.336-0.87-2.228-0.781
		c-1.427,0.142-2.586,1.245-2.59,2.464c-0.003,1.219,1.15,2.093,2.577,1.951c1.427-0.14,2.715-1.214,2.719-2.434l1.781-10.233
		l8.437-0.116l-1.688,9.345c-0.49-0.601-1.34-0.974-2.258-0.883c-1.426,0.143-2.586,1.245-2.59,2.464
		c-0.002,1.22,1.151,2.095,2.578,1.953c1.27-0.126,2.417-0.935,2.657-1.971l0.045,0.014l2.197-10.936l8.499-0.115l-1.943,9.123
		c-0.47-0.63-1.313-1.049-2.239-1.002c-1.43,0.072-2.622,1.119-2.664,2.337c-0.041,1.22,1.085,2.148,2.516,2.076
		c1.273-0.065,2.444-0.819,2.714-1.843l0.046,0.015l4.143-17.782L177.729,254.868z M186.49,259.15l-8.464,0.207l0.157-0.902
		l8.475-0.233L186.49,259.15z M187.469,259.126l0.188-0.933l8.558-0.235l-0.205,0.961L187.469,259.126z"/>
	<path style="opacity:0.3;" d="M419.152,272.299l5.819,9.281c-0.504,0.078-1.073,0.512-1.485,1.193
		c-0.657,1.089-0.737,2.474-0.18,3.094c0.558,0.619,1.542,0.239,2.2-0.85c0.657-1.089,0.817-2.552,0.259-3.171l-3.793-6.45
		l4.218-6.075l3.433,5.934c-0.523,0.045-1.125,0.463-1.548,1.162c-0.656,1.09-0.738,2.476-0.181,3.095
		c0.559,0.62,1.544,0.238,2.201-0.85c0.585-0.971,0.794-2.196,0.439-2.893l0.03-0.025l-3.905-7.102l4.249-6.119l3.201,6.004
		c-0.525,0.017-1.146,0.404-1.592,1.089c-0.69,1.056-0.815,2.438-0.275,3.083c0.537,0.646,1.533,0.313,2.224-0.743
		c0.614-0.942,0.863-2.158,0.529-2.868l0.03-0.025l-6.062-11.957L419.152,272.299z M425.553,268.219l-4.19,6.141l-0.336-0.568
		l4.184-6.162L425.553,268.219z M426.036,267.509l-0.333-0.606l4.224-6.223l0.337,0.633L426.036,267.509z"/>
	<path style="opacity:0.3;" d="M373.563,295.394l-3.047,7.569c-0.196-0.384-0.599-0.713-1.078-0.837
		c-0.771-0.197-1.516,0.163-1.668,0.806c-0.152,0.644,0.351,1.324,1.119,1.522c0.77,0.196,1.581-0.123,1.732-0.767l2.194-5.058
		l4.463,1.548l-2.034,4.607c-0.185-0.41-0.588-0.77-1.083-0.896c-0.77-0.197-1.518,0.163-1.668,0.806
		c-0.151,0.643,0.35,1.323,1.119,1.521c0.686,0.176,1.39-0.031,1.644-0.533l0.021,0.017l2.499-5.349l4.497,1.56l-2.145,4.44
		c-0.169-0.421-0.563-0.803-1.058-0.955c-0.763-0.234-1.52,0.091-1.689,0.726c-0.173,0.635,0.309,1.339,1.07,1.573
		c0.68,0.209,1.39,0.035,1.658-0.453l0.021,0.017l4.366-8.589L373.563,295.394z M377.656,299.322l-4.488-1.506l0.194-0.444
		l4.498,1.491L377.656,299.322z M378.176,299.496l0.215-0.456l4.541,1.508l-0.225,0.466L378.176,299.496z"/>
	<path style="opacity:0.4;" d="M466.398,185.519l10.957,13.709c-0.812,0.253-1.672,1.1-2.234,2.31
		c-0.901,1.938-0.815,4.216,0.193,5.091c1.006,0.873,2.555,0.012,3.454-1.926c0.899-1.937,0.93-4.362-0.076-5.236l-7.208-9.589
		l5.922-10.943l6.535,8.835c-0.847,0.203-1.762,1.031-2.341,2.277c-0.899,1.938-0.814,4.217,0.194,5.091
		c1.008,0.875,2.555,0.013,3.455-1.925c0.802-1.725,0.95-3.779,0.262-4.825l0.045-0.05l-7.489-10.624l5.965-11.024l6.169,9.008
		c-0.857,0.155-1.805,0.941-2.426,2.167c-0.96,1.893-0.944,4.175,0.037,5.096c0.978,0.922,2.551,0.135,3.511-1.759
		c0.854-1.686,1.065-3.73,0.409-4.808l0.046-0.048l-11.772-18.014L466.398,185.519z M476.192,177.293l-5.865,11.043l-0.636-0.845
		l5.851-11.077L476.192,177.293z M476.87,176.016l-0.639-0.906l5.908-11.185l0.647,0.948L476.87,176.016z"/>
	<path style="opacity:0.4;" d="M294.804,298.295l-3.646,13.6c-0.404-0.587-1.141-1.016-1.97-1.079
		c-1.328-0.101-2.511,0.728-2.641,1.849c-0.13,1.123,0.841,2.115,2.169,2.216c1.328,0.1,2.627-0.68,2.757-1.802l2.704-9.136
		l7.779,1.259l-2.525,8.33c-0.39-0.633-1.133-1.111-1.987-1.177c-1.327-0.102-2.511,0.727-2.64,1.85
		c-0.131,1.121,0.84,2.114,2.169,2.214c1.184,0.09,2.323-0.469,2.651-1.385l0.04,0.02l3.159-9.712l7.838,1.268l-2.739,8.085
		c-0.366-0.656-1.098-1.178-1.956-1.284c-1.325-0.164-2.53,0.607-2.696,1.722c-0.164,1.116,0.776,2.152,2.102,2.316
		c1.178,0.147,2.335-0.358,2.69-1.257l0.04,0.022l5.664-15.702L294.804,298.295z M302.425,303.654l-7.814-1.18l0.238-0.805
		l7.827,1.154L302.425,303.654z M303.328,303.789l0.27-0.828l7.903,1.167l-0.288,0.851L303.328,303.789z"/>
	<path d="M373.426,273.76l6.313,7.897c-0.468,0.147-0.963,0.634-1.287,1.332c-0.519,1.115-0.469,2.429,0.112,2.933
		c0.579,0.504,1.47,0.008,1.989-1.109c0.52-1.116,0.536-2.513-0.044-3.017l-4.152-5.525l3.411-6.305l3.766,5.09
		c-0.488,0.117-1.015,0.595-1.349,1.313c-0.518,1.116-0.468,2.43,0.112,2.933c0.579,0.504,1.472,0.008,1.99-1.108
		c0.463-0.995,0.548-2.177,0.151-2.779l0.026-0.03l-4.316-6.12l3.438-6.353l3.555,5.19c-0.494,0.089-1.041,0.542-1.398,1.248
		c-0.553,1.091-0.544,2.406,0.021,2.936c0.564,0.532,1.471,0.079,2.023-1.013c0.492-0.971,0.613-2.149,0.236-2.77l0.026-0.028
		l-6.783-10.379L373.426,273.76z M379.069,269.02l-3.38,6.362l-0.366-0.486l3.37-6.382L379.069,269.02z M379.459,268.284
		l-0.368-0.522l3.404-6.444l0.374,0.546L379.459,268.284z"/>
	<path d="M40.426,262.997l15.06,18.842c-1.117,0.349-2.298,1.512-3.072,3.175c-1.238,2.663-1.118,5.797,0.266,6.997
		c1.385,1.202,3.51,0.018,4.749-2.645c1.238-2.665,1.278-5.996-0.106-7.198l-9.904-13.179l8.137-15.041l8.983,12.145
		c-1.164,0.277-2.419,1.416-3.215,3.128c-1.237,2.665-1.119,5.796,0.265,6.997c1.384,1.201,3.511,0.017,4.749-2.646
		c1.102-2.372,1.305-5.193,0.361-6.631l0.06-0.069L56.462,252.27l8.199-15.152l8.48,12.381c-1.179,0.213-2.482,1.293-3.335,2.978
		c-1.32,2.601-1.296,5.737,0.049,7.003c1.348,1.267,3.508,0.188,4.827-2.417c1.173-2.316,1.463-5.126,0.563-6.608l0.064-0.065
		l-16.182-24.759L40.426,262.997z M53.887,251.691l-8.062,15.179l-0.873-1.161l8.04-15.225L53.887,251.691z M54.816,249.937
		l-0.876-1.245l8.119-15.373l0.892,1.303L54.816,249.937z"/>
	<path style="opacity:0.15;" d="M459.645,326.542l0.667,21.928c-0.833-0.569-2.071-0.688-3.287-0.22
		c-1.945,0.749-3.278,2.729-2.979,4.426c0.299,1.693,2.119,2.459,4.065,1.709c1.944-0.749,3.466-2.74,3.166-4.434l-0.084-14.899
		l11.684-3.436l-0.009,13.628c-0.831-0.644-2.103-0.831-3.354-0.348c-1.945,0.749-3.278,2.73-2.979,4.426
		c0.3,1.694,2.119,2.46,4.064,1.709c1.733-0.667,3.123-2.234,3.196-3.767l0.066,0.002l0.318-16.033l11.773-3.46l-0.423,13.421
		c-0.809-0.694-2.083-0.948-3.356-0.523c-1.968,0.655-3.362,2.572-3.114,4.28c0.245,1.706,2.041,2.559,4.01,1.903
		c1.751-0.585,3.189-2.085,3.309-3.611l0.068,0.004l1.31-26.295L459.645,326.542z M472.878,329.086l-11.7,3.572l-0.007-1.314
		l11.707-3.614V329.086z M474.228,328.673l0.029-1.367l11.821-3.649l-0.045,1.412L474.228,328.673z"/>
	<path style="opacity:0.15;" d="M122.026,241.027l0.667,21.928c-0.833-0.569-2.072-0.689-3.287-0.221
		c-1.946,0.75-3.279,2.73-2.979,4.427c0.299,1.692,2.119,2.459,4.065,1.71c1.945-0.75,3.466-2.74,3.166-4.435l-0.084-14.899
		l11.684-3.435l-0.009,13.627c-0.832-0.644-2.103-0.831-3.355-0.348c-1.945,0.75-3.279,2.73-2.979,4.426
		c0.299,1.693,2.119,2.46,4.065,1.709c1.733-0.667,3.123-2.234,3.195-3.767l0.068,0.002l0.317-16.033l11.771-3.46l-0.421,13.421
		c-0.809-0.694-2.083-0.948-3.357-0.523c-1.968,0.656-3.362,2.572-3.114,4.279c0.246,1.708,2.041,2.561,4.01,1.904
		c1.751-0.585,3.188-2.085,3.308-3.611l0.068,0.004l1.311-26.295L122.026,241.027z M135.258,243.571l-11.7,3.572l-0.007-1.314
		l11.707-3.614V243.571z M136.61,243.158l0.028-1.368l11.821-3.648l-0.044,1.412L136.61,243.158z"/>
	<path style="opacity:0.15;" d="M56.119,201.565l-29.662,25.847c-0.139-2.428-1.351-5.231-3.354-7.329
		c-3.206-3.36-7.437-4.029-9.454-1.496c-2.016,2.53-1.051,7.305,2.154,10.665c3.205,3.359,7.659,4.422,9.673,1.89l20.564-16.769
		l17.771,21.359l-18.906,15.152c-0.034-2.508-1.188-5.456-3.251-7.618c-3.206-3.358-7.438-4.027-9.455-1.496
		c-2.016,2.532-1.052,7.307,2.154,10.667c2.856,2.991,6.576,4.242,8.78,2.692l0.075,0.148l22.583-17.163l17.902,21.519
		l-19.077,14.033c0.06-2.516-1.005-5.545-3.013-7.82c-3.1-3.51-7.309-4.381-9.4-1.945c-2.095,2.43-1.278,7.249,1.823,10.76
		c2.761,3.125,6.441,4.554,8.69,3.111l0.07,0.151l37.918-26.448L56.119,201.565z M67.323,232.919l-17.978-21.241l1.814-1.478
		l18.043,21.21L67.323,232.919z M69.4,235.372l1.927-1.462l18.219,21.417l-2.008,1.478L69.4,235.372z"/>
	<path style="opacity:0.15;" d="M0,352.035v3.914l1.985-1.619l17.77,21.359L0.85,390.842c-0.017-1.241-0.31-2.59-0.85-3.896v7.647
		l21.736-16.521l17.903,21.518l-19.078,14.034c0.061-2.516-1.005-5.545-3.012-7.819c-3.101-3.511-7.309-4.382-9.401-1.946
		c-2.094,2.43-1.277,7.248,1.823,10.76c2.761,3.125,6.441,4.553,8.691,3.111l0.07,0.151l37.919-26.448l-44.589-49.909L0,352.035z
		 M27.271,373.869l18.219,21.416l-2.008,1.478L25.345,375.33L27.271,373.869z M23.267,372.877L5.289,351.636l1.814-1.478
		l18.044,21.211L23.267,372.877z"/>
	<path style="opacity:0.15;" d="M457.791,310.994l6.907-20.184c0.558,0.958,1.636,1.725,2.897,1.948
		c2.017,0.357,3.9-0.725,4.21-2.417c0.309-1.689-1.074-3.352-3.09-3.709c-2.017-0.357-4.074,0.633-4.383,2.324l-5.024,13.519
		l-11.742-3.111l4.674-12.319c0.532,1.024,1.617,1.87,2.914,2.1c2.016,0.358,3.9-0.725,4.21-2.416c0.31-1.691-1.074-3.352-3.09-3.71
		c-1.797-0.318-3.591,0.358-4.18,1.706l-0.062-0.038l-5.776,14.33l-11.83-3.136l4.977-11.912c0.494,1.059,1.559,1.965,2.858,2.26
		c2.003,0.453,3.921-0.537,4.281-2.213c0.361-1.675-0.971-3.401-2.976-3.855c-1.783-0.403-3.597,0.188-4.228,1.505l-0.06-0.04
		l-10.189,23.081L457.791,310.994z M446.696,301.651l11.804,2.996l-0.443,1.192l-11.824-2.963L446.696,301.651z M445.333,301.306
		l-0.493,1.222l-11.939-2.992l0.523-1.254L445.333,301.306z"/>
	<path style="opacity:0.05;" d="M55.25,120.41l11.313-33.065c0.914,1.569,2.681,2.826,4.744,3.192
		c3.304,0.586,6.391-1.187,6.897-3.959c0.507-2.77-1.76-5.491-5.063-6.077c-3.303-0.586-6.672,1.037-7.178,3.807l-8.232,22.146
		l-19.234-5.098l7.655-20.181c0.87,1.679,2.648,3.065,4.773,3.441c3.303,0.586,6.389-1.187,6.897-3.959
		c0.506-2.771-1.76-5.492-5.063-6.077c-2.942-0.522-5.879,0.587-6.846,2.795l-0.101-0.063l-9.462,23.475l-19.378-5.138l8.15-19.513
		c0.81,1.732,2.555,3.219,4.681,3.702c3.283,0.743,6.423-0.879,7.013-3.624c0.594-2.745-1.588-5.573-4.873-6.316
		c-2.921-0.66-5.892,0.309-6.924,2.465l-0.1-0.066L8.232,110.109L55.25,120.41z M37.075,105.105l19.335,4.909l-0.726,1.952
		l-19.37-4.853L37.075,105.105z M34.842,104.539l-0.809,2.001l-19.557-4.901l0.856-2.054L34.842,104.539z"/>
	<path style="opacity:0.15;" d="M432.587,236.346l0.667,21.928c-0.834-0.569-2.072-0.689-3.288-0.22
		c-1.946,0.749-3.278,2.729-2.979,4.426c0.3,1.694,2.119,2.459,4.064,1.71c1.946-0.75,3.466-2.741,3.168-4.435l-0.085-14.899
		l11.684-3.435l-0.009,13.628c-0.832-0.644-2.104-0.831-3.355-0.348c-1.944,0.749-3.278,2.73-2.979,4.426
		c0.3,1.694,2.119,2.46,4.064,1.709c1.734-0.667,3.124-2.234,3.196-3.767l0.068,0.002l0.316-16.033l11.773-3.46l-0.421,13.421
		c-0.81-0.694-2.083-0.948-3.357-0.523c-1.969,0.656-3.362,2.572-3.115,4.28c0.248,1.706,2.042,2.559,4.011,1.903
		c1.751-0.585,3.189-2.085,3.308-3.611l0.068,0.004l1.31-26.294L432.587,236.346z M445.819,238.889l-11.7,3.573l-0.007-1.314
		l11.707-3.613V238.889z M447.172,238.477l0.026-1.368l11.821-3.648l-0.043,1.412L447.172,238.477z"/>
	<path style="opacity:0.15;" d="M153.62,226.505l16.03,9.061c-0.781,0.674-1.42,2.003-1.627,3.567
		c-0.332,2.505,0.493,4.878,1.843,5.302c1.349,0.424,2.712-1.263,3.045-3.769c0.331-2.505-0.417-5.091-1.766-5.514l-10.727-6.567
		l2.759-14.566l9.772,6.102c-0.834,0.64-1.536,1.974-1.75,3.586c-0.332,2.504,0.494,4.878,1.844,5.302
		c1.349,0.423,2.712-1.264,3.044-3.769c0.295-2.231-0.208-4.482-1.274-5.247l0.031-0.076l-11.36-7.522l2.781-14.675l9.44,6.47
		c-0.859,0.593-1.611,1.9-1.877,3.511c-0.408,2.487,0.343,4.899,1.679,5.386c1.334,0.489,2.749-1.132,3.158-3.62
		c0.364-2.215-0.07-4.488-1.111-5.304l0.033-0.075l-18.279-13.217L153.62,226.505z M161.361,212.885l-2.667,14.645l-0.946-0.58
		l2.642-14.671L161.361,212.885z M161.669,211.193l-0.969-0.643l2.667-14.814l0.993,0.681L161.669,211.193z"/>
	<path style="opacity:0.15;" d="M0,287.255l11.819-4.087l-0.091,1.944L0,289.141v3.48l11.556-3.878l-0.922,19.547
		c-1.64-0.703-4.2-0.637-6.766,0.386C2.38,309.27,1.053,310.087,0,311.001v6.913c1.503,0.339,3.527,0.126,5.658-0.724
		c3.551-1.415,6.467-4.031,6.715-6.247l0.139-0.017l1.706-23.078l24.051-8.071l-1.742,19.36c-1.592-0.781-4.152-0.81-6.761,0.134
		c-4.025,1.463-6.973,4.578-6.585,6.963c0.385,2.382,3.962,3.132,7.987,1.671c3.583-1.303,6.591-3.832,6.935-6.053l0.139-0.014
		l4.396-38.057L0,279.48V287.255z M14.639,282.194l24.163-8.354l-0.184,2.035l-24.126,8.288L14.639,282.194z"/>
	<path style="opacity:0.15;" d="M186.615,265.04l-13.501,14.078c-0.148-1.169-0.831-2.464-1.872-3.374
		c-1.667-1.461-3.739-1.563-4.631-0.23c-0.892,1.331-0.263,3.595,1.403,5.054c1.666,1.46,3.859,1.74,4.75,0.409l9.399-9.204
		l9.33,9.417l-8.649,8.334c-0.101-1.215-0.76-2.583-1.833-3.522c-1.666-1.459-3.739-1.561-4.631-0.229
		c-0.891,1.333-0.264,3.595,1.403,5.056c1.485,1.299,3.329,1.71,4.345,0.844l0.041,0.068l10.363-9.5l9.399,9.487l-8.77,7.8
		c-0.055-1.223-0.674-2.634-1.723-3.631c-1.62-1.537-3.689-1.739-4.62-0.45c-0.933,1.288-0.374,3.58,1.247,5.118
		c1.443,1.369,3.273,1.867,4.315,1.052l0.04,0.07l17.479-14.804L186.615,265.04z M193.101,279.644l-9.427-9.349l0.829-0.81
		l9.457,9.329L193.101,279.644z M194.189,280.724l0.885-0.811l9.549,9.423l-0.922,0.82L194.189,280.724z"/>
	<path style="opacity:0.15;" d="M0,135.206v1.665l6.706-6.566l9.33,9.417l-8.648,8.333c-0.102-1.214-0.761-2.583-1.833-3.521
		c-1.667-1.459-3.74-1.562-4.631-0.23c-0.891,1.333-0.264,3.595,1.404,5.056c1.484,1.299,3.329,1.71,4.345,0.844l0.041,0.068
		l10.364-9.5l9.399,9.487l-8.77,7.8c-0.055-1.222-0.674-2.633-1.722-3.63c-1.622-1.538-3.69-1.74-4.622-0.451
		c-0.932,1.288-0.373,3.58,1.247,5.119c1.443,1.369,3.274,1.868,4.316,1.052l0.039,0.069l17.48-14.803l-23.287-21.844L0,135.206z
		 M19.616,138.445l9.549,9.421l-0.922,0.821l-9.512-9.433L19.616,138.445z M17.642,138.174l-9.426-9.349l0.829-0.811l9.458,9.33
		L17.642,138.174z"/>
	<path style="opacity:0.1;" d="M452.835,141.008l-7.825,13.732c-0.292-0.831-1.002-1.627-1.918-2.051
		c-1.465-0.679-3.02-0.252-3.474,0.954c-0.455,1.205,0.366,2.733,1.83,3.413c1.467,0.679,3.139,0.355,3.593-0.85l5.541-9.116
		l8.399,4.727l-5.12,8.288c-0.265-0.876-0.968-1.732-1.911-2.169c-1.465-0.68-3.021-0.251-3.476,0.955
		c-0.452,1.205,0.366,2.733,1.832,3.412c1.306,0.605,2.739,0.462,3.359-0.428l0.041,0.041l6.21-9.571l8.463,4.762l-5.293,7.921
		c-0.232-0.895-0.913-1.792-1.848-2.277c-1.443-0.749-3.012-0.396-3.501,0.787c-0.491,1.183,0.28,2.749,1.726,3.498
		c1.285,0.667,2.722,0.592,3.368-0.267l0.04,0.043l10.667-15.237L452.835,141.008z M459.933,150.277l-8.461-4.653l0.488-0.804
		l8.481,4.632L459.933,150.277z M460.91,150.814l0.529-0.816l8.564,4.677l-0.557,0.834L460.91,150.814z"/>
	<path style="opacity:0.1;" d="M101.764,329.105l8.833,16.462c-0.855,0.054-1.853,0.692-2.609,1.77
		c-1.212,1.725-1.484,4.033-0.612,5.159c0.872,1.126,2.563,0.642,3.773-1.084c1.212-1.724,1.625-4.15,0.752-5.276l-5.719-11.402
		l7.677-9.532l5.165,10.479c-0.883-0.004-1.931,0.602-2.71,1.711c-1.211,1.724-1.484,4.034-0.61,5.161
		c0.873,1.125,2.562,0.641,3.773-1.084c1.078-1.535,1.552-3.561,1.025-4.781l0.054-0.039l-5.84-12.51l7.734-9.604l4.77,10.563
		c-0.886-0.055-1.961,0.502-2.78,1.578c-1.263,1.666-1.607,3.961-0.769,5.128c0.837,1.166,2.541,0.763,3.805-0.903
		c1.123-1.483,1.66-3.482,1.171-4.727l0.054-0.039l-8.972-20.982L101.764,329.105z M112.899,323.254l-7.637,9.648l-0.504-1.006
		l7.628-9.685L112.899,323.254z M113.782,322.14l-0.498-1.066l7.702-9.778l0.501,1.11L113.782,322.14z"/>
	<g>
		<path d="M486.998,315.651c0.546,3.75-2.928,7.961-7.247,9.405c-4.322,1.444-8.267-0.426-8.809-4.176
			c-0.547-3.75,2.515-7.961,6.835-9.405C482.098,310.031,486.454,311.9,486.998,315.651z"/>
		<path style="fill:#FFFFFF;" d="M484.807,316.478c0.307,2.107-2.291,4.617-5.434,5.59c-3.144,0.974-5.94,0.055-6.245-2.052
			c-0.307-2.106,1.994-4.603,5.139-5.576C481.409,313.467,484.5,314.371,484.807,316.478z"/>
	</g>
	<g style="opacity:0.4;">
		<path d="M345.435,320.2c-0.718,2.686-4.189,3.883-7.417,2.899c-3.229-0.984-5.26-3.959-4.54-6.645
			c0.719-2.687,3.92-4.066,7.148-3.082C343.853,314.356,346.155,317.516,345.435,320.2z"/>
		<path style="fill:#FFFFFF;" d="M343.771,319.764c-0.404,1.508-2.815,1.986-5.143,1.22c-2.325-0.765-3.883-2.61-3.48-4.118
			c0.404-1.508,2.617-2.11,4.944-1.344C342.421,316.287,344.176,318.255,343.771,319.764z"/>
	</g>
	<g>
		<path d="M440.127,202.877c2.317,2.485,1.748,8.484-0.879,12.998c-2.626,4.515-6.635,6.158-8.951,3.673
			c-2.318-2.485-2.068-8.159,0.558-12.674C433.482,202.36,437.809,200.392,440.127,202.877z"/>
		<path style="fill:#FFFFFF;" d="M438.843,205.24c1.301,1.396,0.552,5.386-1.399,8.609c-1.949,3.225-4.586,4.707-5.888,3.31
			c-1.301-1.395-0.776-5.141,1.175-8.365C434.682,205.57,437.54,203.844,438.843,205.24z"/>
	</g>
	<g>
		<path d="M68.768,192.309c0.979,6.883-5.414,14.577-13.346,17.189c-7.933,2.613-15.156-0.852-16.133-7.734
			c-0.98-6.884,4.657-14.58,12.59-17.192C59.811,181.958,67.79,185.425,68.768,192.309z"/>
		<path style="fill:#FFFFFF;" d="M64.745,193.806c0.549,3.865-4.227,8.45-10,10.206c-5.77,1.758-10.893,0.049-11.444-3.818
			c-0.55-3.864,3.682-8.425,9.455-10.181C58.526,188.253,64.194,189.939,64.745,193.806z"/>
	</g>
	<path style="opacity:0.7;" d="M483.283,272.786c4.728-4.461,3.547-12.889,0.103-13.626c0.245-1.692,0.464-3.292,0.655-4.736
		c2.156-1.566,4.154-3.667,6.126-8.714c3.021-7.734,2.478-13.327-1.262-10.528c-2.87,2.146-4.537,8.448-5.4,15.28
		c-3.418,2.398-7.455,5.072-8.89,11.583c-1.65,7.482,1.06,13.154,5.072,12.673c-0.955,3.892-1.808,6.957-2.049,7.911
		c-0.586,2.311-3.586,3.639-4.206,0.27c0,0,2.217,0.495,3.285-2.867c1.068-3.361-2.577-5.417-4.432-1.556
		c-1.855,3.861,0.726,9.659,4.767,6.465c1.293-1.023,2.564-5.235,3.691-10.486C481.56,274.15,482.413,273.608,483.283,272.786z
		 M484.901,247.46c0,0,1.226-6.294,3.336-7.937c2.109-1.641,2.466,3.071-0.656,7.37c-0.757,1.04-1.783,1.904-2.935,2.751
		C484.813,248.269,484.901,247.46,484.901,247.46z M476.661,272.261c-4.618-3.549,0.158-12.849,3.78-15.425
		c0.897-0.638,1.759-1.168,2.598-1.722c-0.042,0.54-0.079,1.079-0.11,1.613c-0.047,0.757-0.118,1.557-0.213,2.386
		c-0.578,0.042-1.207,0.286-1.87,0.782c-5.19,3.868-3.905,10.61-1.641,10.78c0,0-1.316-2.632,0.072-5.623
		c0.721-1.555,1.883-2.194,2.875-1.981c-0.563,3.367-1.336,6.924-2.09,10.088C479.074,273.44,477.929,273.233,476.661,272.261z
		 M482.761,263.324c0.637,0.411,1.119,1.25,1.229,2.499c0.181,2.096-0.91,5.441-2.87,6.823
		C481.719,269.661,482.273,266.439,482.761,263.324z"/>
	<path style="opacity:0.7;" d="M205.96,292.306c2.341-6.79-2.025-13.39-5.313-11.907c-0.458-1.622-0.902-3.149-1.308-4.521
		c1.253-2.691,2.157-5.749,1.87-11.352c-0.439-8.585-3.13-13.111-5.271-8.373c-1.645,3.634-0.594,10.139,1.364,16.611
		c-2.021,4.191-4.47,9.002-3.136,15.546c1.532,7.523,6.136,10.782,9.434,7.892c0.714,3.971,1.188,7.16,1.355,8.139
		c0.408,2.372-1.674,5.373-3.55,2.826c0,0,2.125-0.936,1.719-4.516c-0.403-3.581-4.387-3.121-4.468,1.378
		c-0.083,4.5,4.46,7.949,6.707,2.684c0.718-1.688,0.152-6.132-0.948-11.392C205.003,294.555,205.529,293.558,205.96,292.306z
		 M197.328,269.293c0,0-1.431-6.227-0.249-8.953c1.183-2.728,3.362,1.148,2.352,6.81c-0.244,1.371-0.794,2.755-1.46,4.2
		C197.57,270.051,197.328,269.293,197.328,269.293z M199.995,295.931c-5.42-0.238-4.956-11.267-2.828-15.738
		c0.525-1.107,1.066-2.1,1.576-3.097c0.177,0.496,0.359,0.986,0.543,1.471c0.26,0.686,0.514,1.426,0.761,2.204
		c-0.487,0.394-0.936,0.992-1.317,1.832c-2.977,6.563,0.814,11.632,2.849,10.383c0,0-2.188-1.476-2.167-4.932
		c0.011-1.797,0.767-3.067,1.715-3.495c0.846,3.273,1.583,6.843,2.183,10.057C202.56,295.469,201.483,295.995,199.995,295.931z
		 M201.754,284.403c0.717-0.035,1.469,0.396,2.06,1.415c0.99,1.71,1.367,5.29,0.21,7.7
		C203.362,290.554,202.565,287.41,201.754,284.403z"/>
	<path style="opacity:0.7;" d="M111.305,204.799c9.509,0.903,15.288-10.82,11.768-16.285c1.74-1.714,3.372-3.353,4.835-4.836
		c3.939,0.975,8.143,1.097,14.831-2.366c10.252-5.307,14.374-12.769,7.475-14.366c-5.293-1.227-12.686,4.156-19.566,11.244
		c-6.168-1.65-13.318-3.79-20.61,2.149c-8.383,6.827-9.964,17.261-4.718,22.012c-4.474,3.424-8.121,5.985-9.228,6.814
		c-2.682,2.008-7.431-0.379-5.299-5.265c0,0,2.25,3.544,6.409,0.91c4.16-2.632,1.523-9.951-4.011-7.761
		c-5.536,2.189-7.38,12.605,0.22,14.124c2.434,0.483,7.563-2.905,13.411-7.734C108.062,204.155,109.553,204.634,111.305,204.799z
		 M134.897,176.43c0,0,6.855-5.959,10.8-5.136c3.944,0.823,0.349,6.978-7.09,8.009c-1.798,0.251-3.774-0.072-5.886-0.581
		C134.099,177.285,134.897,176.43,134.897,176.43z M103.771,195.37c-2.532-10.409,11.17-15.273,17.738-13.567
		c1.624,0.42,3.118,0.929,4.601,1.376c-0.513,0.595-1.016,1.196-1.512,1.799c-0.702,0.849-1.473,1.718-2.294,2.591
		c-0.734-0.719-1.699-1.259-2.922-1.545c-9.562-2.23-13.773,7.604-11.189,10.815c0,0,0.662-4.921,4.892-6.682
		c2.197-0.915,4.143-0.142,5.159,1.434c-3.554,3.311-7.528,6.569-11.139,9.382C105.673,199.995,104.469,198.227,103.771,195.37z
		 M118.76,192.703c0.417,1.34,0.282,2.994-0.654,4.644c-1.572,2.769-5.746,5.349-9.289,4.412
		C112.09,198.956,115.511,195.807,118.76,192.703z"/>
	<path style="opacity:0.7;" d="M251.769,322.205c2.965,1.495,5.768-1.519,5.089-3.711c0.696-0.327,1.353-0.645,1.94-0.934
		c1.178,0.812,2.511,1.384,4.933,1.125c3.708-0.395,5.636-2.257,3.56-3.642c-1.592-1.063-4.393-0.28-7.171,1.112
		c-1.836-1.311-3.946-2.9-6.762-1.928c-3.235,1.118-4.592,4.253-3.304,6.436c-1.709,0.526-3.082,0.883-3.504,1.008
		c-1.021,0.301-2.344-1.064-1.265-2.354c0,0,0.43,1.417,1.975,1.103c1.544-0.313,1.299-2.986-0.649-2.989
		c-1.947-0.003-3.386,3.093-1.082,4.541c0.738,0.463,2.654,0.031,4.917-0.771C250.785,321.588,251.223,321.931,251.769,322.205z
		 M261.623,316.131c0,0,2.677-1.034,3.87-0.271c1.193,0.764-0.458,2.275-2.919,1.66c-0.596-0.147-1.201-0.502-1.835-0.932
		C261.298,316.304,261.623,316.131,261.623,316.131z M250.13,318.236c0.04-3.647,4.817-3.465,6.775-2.086
		c0.484,0.34,0.921,0.692,1.358,1.023c-0.211,0.126-0.423,0.254-0.63,0.383c-0.293,0.184-0.61,0.363-0.944,0.538
		c-0.177-0.322-0.44-0.617-0.808-0.864c-2.874-1.925-5.023,0.683-4.458,2.037c0,0,0.612-1.488,2.107-1.515
		c0.777-0.015,1.336,0.479,1.532,1.112c-1.405,0.606-2.941,1.145-4.325,1.585C250.36,319.956,250.12,319.238,250.13,318.236z
		 M255.139,319.285c0.022,0.481-0.155,0.992-0.589,1.401c-0.727,0.685-2.272,0.98-3.329,0.232
		C252.496,320.439,253.847,319.865,255.139,319.285z"/>
	<path style="opacity:0.3;" d="M362.738,266.647c-1.966-1.274-4.06,0.571-3.708,2.14c-0.497,0.169-0.966,0.332-1.387,0.483
		c-0.771-0.657-1.661-1.163-3.342-1.185c-2.581-0.033-4.007,1.091-2.65,2.219c1.04,0.864,3.015,0.557,5.004-0.174
		c1.196,1.056,2.567,2.327,4.56,1.89c2.291-0.503,3.394-2.553,2.621-4.165c1.208-0.223,2.174-0.354,2.472-0.404
		c0.721-0.124,1.56,0.927,0.746,1.729c0,0-0.221-1.014-1.303-0.926c-1.081,0.089-1.054,1.953,0.288,2.116
		c1.343,0.163,2.501-1.854,0.989-3.043c-0.485-0.38-1.83-0.241-3.434,0.124C363.385,267.154,363.1,266.882,362.738,266.647z
		 M355.617,270.022c0,0-1.901,0.491-2.684-0.134s0.436-1.53,2.102-0.903c0.403,0.151,0.802,0.446,1.216,0.794
		C355.851,269.929,355.617,270.022,355.617,270.022z M363.656,269.521c-0.223,2.513-3.506,1.99-4.784,0.878
		c-0.317-0.276-0.598-0.555-0.883-0.818c0.154-0.069,0.306-0.14,0.455-0.212c0.213-0.101,0.44-0.199,0.68-0.293
		c0.105,0.238,0.271,0.464,0.513,0.663c1.879,1.566,3.5-0.054,3.183-1.035c0,0-0.502,0.976-1.535,0.87
		c-0.536-0.055-0.895-0.441-0.997-0.895c1.002-0.301,2.09-0.545,3.067-0.735C363.589,268.315,363.717,268.832,363.656,269.521z
		 M360.259,268.382c0.01-0.333,0.158-0.671,0.479-0.917c0.54-0.412,1.622-0.488,2.31,0.116
		C362.142,267.806,361.18,268.09,360.259,268.382z"/>
	<path style="opacity:0.3;" d="M304.947,312.218c1.763,1.674,4.078,0.297,3.945-1.322c0.514-0.061,0.998-0.122,1.434-0.182
		c0.669,0.81,1.477,1.496,3.132,1.875c2.536,0.579,4.097-0.226,2.914-1.625c-0.909-1.073-2.896-1.188-4.956-0.889
		c-1.035-1.295-2.214-2.837-4.238-2.828c-2.324,0.011-3.69,1.797-3.15,3.549c-1.219-0.036-2.189-0.111-2.489-0.125
		c-0.728-0.03-1.412-1.243-0.5-1.86c0,0,0.079,1.045,1.158,1.188c1.077,0.142,1.304-1.702,0.004-2.145
		c-1.302-0.446-2.718,1.295-1.39,2.788c0.428,0.478,1.771,0.625,3.4,0.604C304.38,311.581,304.622,311.909,304.947,312.218z
		 M312.425,310.4c0,0,1.94-0.081,2.626,0.7c0.686,0.781-0.64,1.416-2.195,0.444c-0.376-0.233-0.728-0.607-1.089-1.04
		C312.182,310.442,312.425,310.4,312.425,310.4z M304.434,309.192c0.561-2.43,3.728-1.22,4.834,0.147
		c0.275,0.339,0.514,0.673,0.758,0.992c-0.16,0.036-0.319,0.073-0.477,0.113c-0.222,0.056-0.461,0.103-0.71,0.145
		c-0.071-0.257-0.204-0.514-0.414-0.762c-1.639-1.941-3.456-0.686-3.276,0.348c0,0,0.628-0.857,1.631-0.533
		c0.521,0.167,0.822,0.625,0.859,1.093c-1.029,0.085-2.133,0.093-3.122,0.074C304.336,310.393,304.281,309.857,304.434,309.192z
		 M307.627,311.033c-0.055,0.326-0.249,0.628-0.597,0.803c-0.588,0.292-1.664,0.137-2.259-0.604
		C305.692,311.202,306.679,311.127,307.627,311.033z"/>
	<path style="opacity:0.1;" d="M417.542,317.226c-4.623,0.707-6.489,7.012-4.381,9.208c-0.701,1.029-1.358,2.007-1.944,2.895
		c-1.962,0.005-3.985,0.448-6.923,2.905c-4.5,3.77-5.9,7.836-2.474,7.776c2.631-0.046,5.756-3.508,8.506-7.727
		c3.082,0.054,6.67,0.222,9.707-3.493c3.487-4.272,3.442-9.458,0.564-11.106c1.88-2.177,3.428-3.84,3.896-4.366
		c1.129-1.283,3.588-0.711,2.942,1.886c0,0-1.351-1.428-3.14,0.329c-1.79,1.761,0.037,4.949,2.519,3.238
		c2.482-1.708,2.563-6.919-1.192-6.736c-1.203,0.06-3.4,2.296-5.828,5.308C419.146,317.147,418.394,317.096,417.542,317.226z
		 M408.426,333.638c0,0-2.824,3.673-4.777,3.751c-1.951,0.075-0.704-3.301,2.78-4.685c0.842-0.336,1.814-0.418,2.862-0.426
		C408.742,333.131,408.426,333.638,408.426,333.638z M421.874,320.841c2.015,4.684-4.173,8.651-7.449,8.62
		c-0.812-0.007-1.564-0.074-2.31-0.109c0.199-0.346,0.395-0.693,0.587-1.041c0.27-0.49,0.572-0.999,0.898-1.516
		c0.407,0.257,0.911,0.4,1.52,0.389c4.75-0.074,6.011-5.288,4.523-6.517c0,0,0.063,2.436-1.828,3.784
		c-0.98,0.701-1.973,0.565-2.58-0.068c1.448-2.01,3.102-4.046,4.612-5.827C420.609,318.853,421.323,319.558,421.874,320.841z
		 M414.902,323.91c-0.303-0.591-0.366-1.4-0.044-2.3c0.541-1.516,2.34-3.251,4.109-3.226
		C417.616,320.117,416.22,322.035,414.902,323.91z"/>
	<path style="opacity:0.1;" d="M406.605,291.21c-3.845-3.275-8.586-0.077-8.166,3.308c-1.073,0.196-2.083,0.39-2.994,0.573
		c-1.475-1.611-3.23-2.943-6.736-3.517c-5.376-0.872-8.581,1.029-5.976,3.805c1.999,2.13,6.18,2.104,10.478,1.198
		c2.286,2.578,4.893,5.658,9.142,5.367c4.882-0.337,7.594-4.268,6.305-7.875c2.564-0.088,4.608-0.063,5.239-0.072
		c1.526-0.034,3.069,2.419,1.209,3.839c0,0-0.257-2.184-2.532-2.338c-2.275-0.151-2.593,3.747,0.178,4.506
		c2.769,0.761,5.59-3.086,2.672-6.041c-0.936-0.945-3.768-1.073-7.188-0.813C407.852,292.471,407.314,291.813,406.605,291.21z
		 M391.067,296.031c0,0-4.064,0.433-5.573-1.117c-1.506-1.549,1.22-3.058,4.568-1.229c0.81,0.441,1.583,1.179,2.375,2.035
		C391.574,295.91,391.067,296.031,391.067,296.031z M407.945,297.491c-0.968,5.177-7.717,3.061-10.16,0.342
		c-0.607-0.674-1.136-1.345-1.676-1.983c0.332-0.097,0.663-0.195,0.99-0.299c0.463-0.148,0.959-0.279,1.478-0.4
		c0.172,0.529,0.474,1.051,0.937,1.543c3.607,3.855,7.314,0.978,6.848-1.169c0,0-1.243,1.88-3.377,1.337
		c-1.108-0.28-1.781-1.199-1.901-2.176c2.152-0.318,4.471-0.485,6.551-0.579C408.048,294.957,408.21,296.072,407.945,297.491z
		 M401.083,294.057c0.086-0.692,0.467-1.353,1.186-1.764c1.209-0.692,3.479-0.516,4.795,0.961
		C405.13,293.442,403.063,293.732,401.083,294.057z"/>
	<path style="opacity:0.1;" d="M386.945,226.165c4.023,2.925,8.569-0.688,7.957-4.026c1.058-0.291,2.056-0.574,2.952-0.839
		c1.564,1.477,3.391,2.649,6.922,2.909c5.412,0.393,8.499-1.788,5.742-4.325c-2.116-1.947-6.286-1.549-10.521-0.264
		c-2.428-2.368-5.203-5.209-9.424-4.541c-4.85,0.77-7.331,4.933-5.84,8.417c-2.552,0.315-4.592,0.472-5.22,0.538
		c-1.521,0.17-3.2-2.14-1.428-3.721c0,0,0.383,2.156,2.659,2.107c2.28-0.052,2.373-3.969-0.434-4.479
		c-2.805-0.512-5.399,3.575-2.318,6.264c0.985,0.86,3.82,0.735,7.215,0.17C385.629,225.019,386.205,225.626,386.945,226.165z
		 M402.167,219.975c0,0,4.031-0.793,5.625,0.618c1.591,1.412-1.042,3.159-4.487,1.631c-0.833-0.366-1.646-1.035-2.485-1.819
		C401.67,220.139,402.167,219.975,402.167,219.975z M385.25,220.019c0.669-5.249,7.521-3.739,10.114-1.244
		c0.642,0.618,1.209,1.24,1.786,1.829c-0.326,0.125-0.651,0.254-0.973,0.387c-0.453,0.187-0.939,0.364-1.45,0.53
		c-0.201-0.512-0.531-1.006-1.021-1.455c-3.819-3.525-7.353-0.325-6.765,1.775c0,0,1.132-1.985,3.293-1.634
		c1.121,0.181,1.846,1.038,2.021,2.001c-2.128,0.508-4.433,0.882-6.5,1.159C385.293,222.556,385.066,221.457,385.25,220.019z
		 M392.29,222.833c-0.045,0.7-0.388,1.392-1.08,1.866c-1.167,0.798-3.44,0.823-4.837-0.532
		C388.289,223.807,390.333,223.333,392.29,222.833z"/>
	<path style="opacity:0.05;" d="M45.111,434.145c15.469-8.16,16.929-32.333,7.875-37.342c1.612-4.436,3.113-8.64,4.439-12.44
		c6.801-2.44,13.463-6.479,21.694-18.629c12.608-18.628,14.231-34.457,2.396-30.018c-9.082,3.408-17.171,19.278-23.35,37.301
		c-10.731,3.622-23.308,7.472-30.884,24.106c-8.697,19.124-4.421,37.05,6.868,39.209c-4.787,9.871-8.835,17.549-10.04,19.955
		c-2.891,5.841-11.872,6.895-11.701-2.908c0,0,5.819,3.283,10.627-5.016c4.807-8.317-4.063-17.12-11.311-8.119
		c-7.247,8.993-3.393,27.16,9.494,21.884c4.122-1.692,9.957-12.161,15.988-25.602C39.612,436.4,42.264,435.646,45.111,434.145z
		 M63.679,365.97c0,0,6.875-16.222,13.586-18.906c6.706-2.675,5.062,10.577-5.918,19.678c-2.65,2.206-5.956,3.688-9.586,5.015
		C62.985,368.122,63.679,365.97,63.679,365.97z M27.212,426.962c-10.706-13.752,7.601-35.155,18.981-39.096
		c2.823-0.98,5.489-1.673,8.097-2.474c-0.414,1.443-0.82,2.893-1.205,4.331c-0.546,2.038-1.189,4.173-1.906,6.369
		c-1.623-0.385-3.479-0.261-5.578,0.531c-16.418,6.127-16.644,25.762-10.512,28.186c0,0-2.151-8.367,3.333-15.385
		c2.841-3.645,6.396-4.399,9.002-2.948c-3.421,8.761-7.537,17.859-11.364,25.903C33.183,432.293,30.149,430.729,27.212,426.962z
		 M48.95,407.704c1.523,1.676,2.383,4.402,1.985,7.922c-0.674,5.924-5.533,14.161-11.69,16.26
		C42.557,424.207,45.876,415.83,48.95,407.704z"/>
	<path style="opacity:0.05;" d="M78.142,103.105c1.435-17.43-18.164-31.656-27.254-26.713c-2.874-3.744-5.612-7.269-8.104-10.431
		c1.598-7.047,1.774-14.835-4.047-28.307C29.807,17.009,17.332,7.131,14.713,19.497c-2.008,9.49,7.026,24.843,18.902,39.74
		c-2.714,10.996-6.229,23.67,3.726,39.001c11.451,17.613,28.865,23.644,36.754,15.285c5.751,9.343,10.049,16.883,11.43,19.192
		c3.372,5.577-0.568,13.717-8.742,8.304c0,0,5.897-3.143,1.483-11.658c-4.43-8.524-16.62-5.777-12.926,5.173
		c3.688,10.945,21.079,17.461,23.557,3.758c0.788-4.386-4.902-14.934-12.994-27.244C77.088,108.956,77.877,106.313,78.142,103.105z
		 M30.636,50.802c0,0-9.983-14.517-8.639-21.619c1.349-7.093,11.64,1.417,13.412,15.568c0.436,3.42-0.091,7.004-0.924,10.779
		C32.078,52.544,30.636,50.802,30.636,50.802z M62.464,114.338C45.113,115.973,36.906,89.031,39.7,77.317
		c0.692-2.907,1.54-5.527,2.267-8.157c0.994,1.125,1.999,2.247,3.004,3.345c1.425,1.556,2.879,3.246,4.346,5.031
		c-1.197,1.162-2.09,2.793-2.55,4.989c-3.659,17.138,12.776,27.883,18.117,24.016c0,0-8.212-2.684-11.181-11.08
		c-1.546-4.355-0.272-7.758,2.353-9.175c5.548,7.594,11.008,15.955,15.733,23.507C70.169,112.169,67.22,113.886,62.464,114.338z
		 M57.91,85.656c2.232-0.383,4.994,0.356,7.748,2.584c4.633,3.753,8.967,12.278,7.427,18.598
		C68.39,99.918,63.11,92.616,57.91,85.656z"/>
	<path style="opacity:0.1;" d="M156.362,309.795c4.023,2.924,8.57-0.688,7.957-4.026c1.058-0.292,2.055-0.575,2.953-0.839
		c1.565,1.476,3.391,2.649,6.922,2.908c5.412,0.393,8.5-1.788,5.742-4.326c-2.116-1.946-6.285-1.549-10.521-0.263
		c-2.427-2.368-5.203-5.209-9.424-4.541c-4.85,0.77-7.331,4.934-5.839,8.416c-2.552,0.316-4.592,0.473-5.221,0.537
		c-1.52,0.172-3.2-2.14-1.427-3.72c0,0,0.382,2.154,2.659,2.107c2.28-0.053,2.373-3.969-0.434-4.48
		c-2.805-0.512-5.399,3.575-2.318,6.265c0.986,0.859,3.82,0.735,7.215,0.169C155.046,308.647,155.622,309.255,156.362,309.795z
		 M171.585,303.603c0,0,4.031-0.793,5.624,0.618c1.591,1.412-1.041,3.159-4.486,1.632c-0.834-0.366-1.647-1.035-2.486-1.819
		C171.086,303.768,171.585,303.603,171.585,303.603z M154.666,303.648c0.669-5.251,7.522-3.74,10.114-1.245
		c0.644,0.618,1.21,1.239,1.786,1.829c-0.326,0.125-0.651,0.254-0.971,0.387c-0.454,0.188-0.941,0.363-1.451,0.529
		c-0.201-0.512-0.532-1.006-1.021-1.455c-3.819-3.525-7.352-0.325-6.765,1.775c0,0,1.132-1.985,3.294-1.635
		c1.121,0.181,1.845,1.038,2.02,2.002c-2.128,0.508-4.432,0.881-6.5,1.159C154.71,306.185,154.484,305.086,154.666,303.648z
		 M161.707,306.462c-0.046,0.7-0.388,1.392-1.08,1.866c-1.167,0.798-3.441,0.822-4.837-0.532
		C157.707,307.435,159.75,306.962,161.707,306.462z"/>
	<path style="opacity:0.1;" d="M88.649,310.722c13.93-6.091,16.288-27.192,8.567-32.213c1.612-3.78,3.115-7.363,4.448-10.606
		c6.073-1.671,12.098-4.753,19.859-14.839c11.886-15.473,14.013-29.245,3.435-26.168c-8.117,2.362-15.919,15.723-22.14,31.107
		c-9.573,2.435-20.777,4.942-28.163,19.012c-8.48,16.174-5.525,32.194,4.283,34.867c-4.639,8.329-8.528,14.787-9.695,16.811
		c-2.794,4.926-10.72,5.228-10.133-3.356c0,0,4.958,3.28,9.544-3.667c4.585-6.966-2.802-15.299-9.56-7.903
		c-6.758,7.386-4.183,23.591,7.354,19.853c3.691-1.199,9.278-9.979,15.162-21.355C83.725,312.32,86.084,311.841,88.649,310.722z
		 M107.965,252.201c0,0,6.751-13.755,12.758-15.646c6.001-1.884,3.971,9.627-6.067,16.85c-2.421,1.754-5.388,2.824-8.63,3.738
		C107.259,254.039,107.965,252.201,107.965,252.201z M73.269,303.185c-8.785-12.807,8.227-30.314,18.386-32.983
		c2.519-0.664,4.887-1.092,7.211-1.61c-0.429,1.236-0.848,2.48-1.248,3.717c-0.572,1.748-1.231,3.577-1.959,5.451
		c-1.404-0.446-3.04-0.469-4.917,0.081c-14.671,4.242-15.744,21.449-10.472,23.999c0,0-1.516-7.486,3.606-13.264
		c2.655-3.001,5.805-3.418,8.028-1.963c-3.393,7.444-7.407,15.142-11.121,21.936C78.267,308.272,75.676,306.691,73.269,303.185z
		 M93.191,287.792c1.259,1.574,1.894,4.026,1.388,7.086c-0.854,5.15-5.482,12.039-10.975,13.457
		C86.85,301.827,90.132,294.708,93.191,287.792z"/>
	<path style="opacity:0.7;" d="M413.236,295.537c1.629-7.106-3.372-12.961-6.481-10.973c-0.618-1.535-1.215-2.98-1.757-4.276
		c0.969-2.869,1.554-6.044,0.7-11.556c-1.309-8.446-4.438-12.511-6.081-7.473c-1.262,3.864,0.442,10.151,3.043,16.262
		c-1.578,4.476-3.518,9.637-1.529,15.918c2.285,7.217,7.185,9.723,10.16,6.335c1.112,3.826,1.907,6.914,2.174,7.858
		c0.644,2.288-1.115,5.595-3.235,3.364c0,0,2.013-1.264,1.247-4.752c-0.765-3.487-4.67-2.401-4.292,2.075
		c0.376,4.477,5.233,7.18,6.924,1.601c0.541-1.788-0.472-6.106-2.099-11.149C412.515,297.918,412.938,296.847,413.236,295.537z
		 M402.332,274.073c0,0-2.054-5.949-1.158-8.842c0.897-2.892,3.453,0.608,3.027,6.384c-0.104,1.397-0.51,2.858-1.022,4.397
		C402.65,274.788,402.332,274.073,402.332,274.073z M407.688,300.075c-5.4,0.62-6.06-10.392-4.406-15.164
		c0.409-1.181,0.844-2.252,1.247-3.321c0.227,0.463,0.458,0.922,0.69,1.372c0.328,0.64,0.655,1.334,0.978,2.065
		c-0.442,0.469-0.826,1.134-1.119,2.027c-2.284,6.98,1.99,11.408,3.883,9.849c0,0-2.321-1.119-2.651-4.552
		c-0.173-1.781,0.448-3.162,1.345-3.736c1.172,3.112,2.267,6.538,3.188,9.63C410.185,299.21,409.171,299.903,407.688,300.075z
		 M408.261,288.363c0.706-0.148,1.497,0.159,2.188,1.076c1.154,1.54,1.894,5.032,0.991,7.604
		C410.481,294.209,409.371,291.217,408.261,288.363z"/>
	<path d="M443.792,270.255c1.301-3.11-0.576-6.428-2.174-5.873c-0.172-0.788-0.338-1.53-0.489-2.199
		c0.67-1.218,1.185-2.625,1.211-5.288c0.039-4.084-1.105-6.347-2.255-4.199c-0.883,1.646-0.572,4.773,0.169,7.923
		c-1.077,1.893-2.374,4.063-1.931,7.22c0.509,3.627,2.594,5.376,4.239,4.155c0.224,1.911,0.356,3.441,0.406,3.914
		c0.126,1.14-0.945,2.468-1.759,1.179c0,0,1.03-0.349,0.942-2.063c-0.088-1.712-1.987-1.672-2.156,0.455
		c-0.167,2.125,1.884,3.961,3.099,1.568c0.389-0.767,0.247-2.896-0.123-5.435C443.273,271.276,443.552,270.828,443.792,270.255z
		 M440.365,258.977c0,0-0.499-3.011,0.141-4.248c0.637-1.239,1.558,0.692,0.916,3.327c-0.154,0.638-0.455,1.268-0.811,1.923
		C440.458,259.346,440.365,258.977,440.365,258.977z M440.863,271.704c-2.56-0.354-2.022-5.554-0.887-7.576
		c0.279-0.5,0.564-0.945,0.835-1.396c0.068,0.243,0.141,0.483,0.214,0.721c0.104,0.336,0.203,0.698,0.297,1.078
		c-0.242,0.164-0.471,0.427-0.674,0.808c-1.599,2.973,0.05,5.543,1.05,5.041c0,0-0.993-0.796-0.885-2.432
		c0.057-0.849,0.451-1.417,0.911-1.577c0.308,1.588,0.554,3.31,0.746,4.857C442.09,271.6,441.566,271.802,440.863,271.704z
		 M442.027,266.327c0.34,0.014,0.685,0.253,0.935,0.762c0.418,0.853,0.494,2.563-0.122,3.652
		C442.61,269.309,442.324,267.785,442.027,266.327z"/>
	<path d="M345.313,304.904c2.776-0.574,3.772-4.439,2.455-5.698c0.402-0.644,0.778-1.256,1.113-1.811
		c1.183-0.064,2.395-0.399,4.117-1.977c2.64-2.418,3.4-4.918,1.333-4.771c-1.585,0.112-3.402,2.303-4.973,4.936
		c-1.861,0.067-4.032,0.081-5.788,2.422c-2.017,2.689-1.882,5.819-0.11,6.723c-1.09,1.372-1.99,2.426-2.262,2.761
		c-0.654,0.81-2.15,0.543-1.814-1.045c0,0,0.844,0.817,1.889-0.3c1.043-1.118-0.126-2.985-1.588-1.874
		c-1.463,1.112-1.404,4.26,0.859,4.028c0.725-0.074,2.003-1.495,3.407-3.392C344.348,305.004,344.803,305.01,345.313,304.904z
		 M350.477,294.706c0,0,1.629-2.308,2.805-2.416c1.179-0.111,0.493,1.967-1.579,2.915c-0.502,0.228-1.086,0.309-1.721,0.35
		C350.296,295.022,350.477,294.706,350.477,294.706z M342.625,302.861c-1.314-2.762,2.339-5.357,4.318-5.442
		c0.489-0.022,0.944-0.007,1.396-0.008c-0.113,0.216-0.225,0.432-0.333,0.647c-0.153,0.305-0.325,0.622-0.511,0.943
		c-0.252-0.142-0.558-0.212-0.925-0.186c-2.866,0.197-3.52,3.386-2.598,4.078c0,0-0.087-1.467,1.026-2.343
		c0.577-0.455,1.18-0.404,1.558-0.041c-0.831,1.261-1.786,2.542-2.663,3.665C343.43,304.021,342.985,303.62,342.625,302.861z
		 M346.77,300.784c0.194,0.348,0.249,0.833,0.074,1.389c-0.294,0.931-1.346,2.036-2.415,2.077
		C345.211,303.16,346.014,301.959,346.77,300.784z"/>
	<path style="opacity:0.1;" d="M244.895,287.908c0.617-6.957-4.794-11.433-7.444-8.96c-0.773-1.313-1.513-2.542-2.184-3.646
		c0.541-2.867,0.683-5.948-0.815-10.922c-2.294-7.626-5.731-10.799-6.625-5.772c-0.685,3.856,1.704,9.387,4.907,14.573
		c-0.905,4.49-2.057,9.69,0.595,15.158c3.05,6.285,7.941,7.655,10.289,3.905c1.524,3.352,2.658,6.077,3.027,6.906
		c0.892,2.005-0.329,5.441-2.591,3.777c0,0,1.715-1.577,0.561-4.681c-1.157-3.103-4.666-1.316-3.745,2.787
		c0.921,4.1,5.798,5.663,6.667,0.121c0.278-1.772-1.217-5.603-3.377-9.989C244.523,290.273,244.78,289.189,244.895,287.908z
		 M231.989,270.031c0,0-2.671-5.148-2.202-8.023c0.466-2.877,3.297-0.117,3.633,5.358c0.082,1.325-0.111,2.768-0.393,4.307
		C232.376,270.635,231.989,270.031,231.989,270.031z M240.292,293.238c-4.962,1.646-6.98-8.501-6.041-13.281
		c0.232-1.184,0.502-2.266,0.744-3.346c0.271,0.387,0.544,0.769,0.817,1.146c0.388,0.53,0.783,1.114,1.176,1.734
		c-0.355,0.524-0.628,1.22-0.787,2.112c-1.247,6.964,3.308,10.255,4.873,8.422c0,0-2.306-0.584-3.05-3.723
		c-0.389-1.628,0.015-3.041,0.778-3.753c1.491,2.675,2.948,5.651,4.202,8.359C242.514,291.94,241.655,292.786,240.292,293.238z
		 M239.338,282.194c0.641-0.278,1.419-0.147,2.178,0.574c1.273,1.207,2.406,4.321,1.892,6.9
		C242.153,287.211,240.738,284.639,239.338,282.194z"/>
	<path d="M462.69,279.64l4.186-0.779l0.19-4.61l-4.356,1.08l0.027-6.005l-1.524-0.161l-0.133,6.571l-3.705,0.92l-0.022-4.016
		l-1.523-0.161l-0.059,4.574l-3.678,0.913v3.647l3.628-0.676l-0.043,3.418l-3.585,0.37v3.04l3.543-0.18l-0.074,5.819l1.907,0.471
		l-0.035-6.381l3.411-0.171l-0.122,6.039l1.903,0.513l0.029-6.643l4.22-0.214l0.19-3.842l-4.393,0.454L462.69,279.64z
		 M457.417,284.174l-0.021-3.549l3.599-0.67l-0.078,3.857L457.417,284.174z"/>
	<path d="M318.116,325.074l1.475,2.756l2.15-1.098l-1.656-2.796l2.741-1.586l-0.332-1.123l-3.029,1.662l-1.41-2.378l1.823-1.089
		l-0.332-1.122l-2.101,1.183l-1.399-2.361l-1.661,0.976l1.277,2.389l-1.568,0.882l-1.127-2.439l-1.385,0.812l1.028,2.462
		l-2.671,1.502l0.295,1.477l2.897-1.731l0.991,2.371l-2.784,1.526l0.275,1.486l3.034-1.756l1.225,2.932l1.802-0.893l-1.382-2.989
		L318.116,325.074z M314.641,322.552l1.612-0.963l1.266,2.368l-1.777,0.977L314.641,322.552z"/>
	<path d="M163.16,261.458l2.347,4.389l3.426-1.748l-2.638-4.454l4.369-2.526l-0.531-1.788l-4.827,2.647l-2.245-3.788l2.905-1.734
		l-0.531-1.787l-3.345,1.881l-2.229-3.76l-2.646,1.553l2.036,3.805l-2.499,1.407l-1.796-3.887l-2.206,1.294l1.639,3.922
		l-4.254,2.393l0.47,2.353l4.616-2.757l1.578,3.776l-4.436,2.434l0.439,2.366l4.833-2.797l1.952,4.67l2.869-1.422l-2.201-4.763
		L163.16,261.458z M157.623,257.439l2.567-1.533l2.018,3.773l-2.832,1.554L157.623,257.439z"/>
	<path style="opacity:0.1;" d="M311.656,285.39l4.186-0.779l0.189-4.61l-4.355,1.08l0.026-6.005l-1.523-0.162l-0.133,6.572
		l-3.705,0.919l-0.022-4.016l-1.523-0.161l-0.058,4.574l-3.68,0.914v3.647l3.63-0.676l-0.045,3.417l-3.585,0.371v3.039l3.544-0.179
		l-0.074,5.818l1.908,0.472l-0.036-6.381l3.412-0.172l-0.122,6.039l1.903,0.514l0.029-6.644l4.22-0.213l0.189-3.843l-4.393,0.454
		L311.656,285.39z M306.382,289.924l-0.02-3.55l3.597-0.67l-0.076,3.857L306.382,289.924z"/>
	<path d="M432.686,240.4l0.47-3.41l-2.267-1.093l-0.352,3.605l-2.996-1.252l-0.393,1.15l3.256,1.451l-0.3,3.066l-2.012-0.807
		l-0.394,1.15l2.275,0.984l-0.299,3.044l1.821,0.747l0.406-2.957l1.7,0.735l-0.551,2.861l1.52,0.623l0.637-2.789l2.891,1.251
		l0.627-1.385l-3.194-1.281l0.613-2.685l2.992,1.334l0.647-1.374l-3.313-1.385l0.76-3.321l-1.883-0.936l-0.674,3.505L432.686,240.4z
		 M433.87,245.427l-1.777-0.712l0.402-2.932l1.912,0.852L433.87,245.427z"/>
	<path d="M196.024,238.401l0.623-4.531l-3.009-1.452l-0.47,4.789l-3.979-1.664l-0.521,1.529l4.325,1.927l-0.398,4.074l-2.672-1.071
		l-0.522,1.527l3.021,1.307l-0.396,4.045l2.42,0.993l0.54-3.928l2.257,0.976l-0.731,3.801l2.019,0.829l0.846-3.707l3.843,1.663
		l0.832-1.84l-4.244-1.701l0.814-3.568l3.977,1.771l0.86-1.825l-4.403-1.841l1.009-4.411l-2.501-1.243l-0.895,4.657L196.024,238.401
		z M197.598,245.08l-2.362-0.946l0.536-3.896l2.539,1.132L197.598,245.08z"/>
</g>
<g id="DESIGNED_BY_FREEPIK">
	<g id="XMLID_76_">
		<g id="XMLID_929_">
			<path id="XMLID_958_" style="fill:#B0B0B0;" d="M181.087,466.631c-0.246,0-0.435,0.084-0.567,0.255
				c-0.133,0.169-0.199,0.421-0.199,0.753v2.393c-0.304-0.332-0.617-0.579-0.937-0.739c-0.321-0.159-0.715-0.24-1.182-0.24
				c-0.807,0-1.458,0.283-1.953,0.849c-0.494,0.565-0.742,1.355-0.742,2.369c0,0.478,0.063,0.923,0.188,1.335
				c0.124,0.412,0.307,0.77,0.549,1.074c0.241,0.304,0.526,0.539,0.857,0.703c0.33,0.164,0.689,0.246,1.078,0.246
				c0.293,0,0.563-0.04,0.809-0.122c0.247-0.081,0.477-0.199,0.689-0.356c0.212-0.155,0.427-0.359,0.644-0.607v0.16
				c0,0.297,0.072,0.525,0.217,0.686c0.145,0.16,0.328,0.24,0.549,0.24c0.226,0,0.409-0.077,0.552-0.231
				c0.143-0.154,0.213-0.386,0.213-0.694v-7.146c0-0.306-0.066-0.534-0.199-0.69C181.521,466.709,181.332,466.631,181.087,466.631z
				 M180.021,473.471c-0.141,0.307-0.329,0.534-0.564,0.682c-0.236,0.149-0.496,0.224-0.781,0.224c-0.281,0-0.54-0.078-0.778-0.236
				c-0.237-0.154-0.424-0.387-0.561-0.696c-0.136-0.309-0.205-0.682-0.205-1.121c0-0.416,0.064-0.78,0.193-1.096
				c0.128-0.314,0.31-0.556,0.543-0.724c0.233-0.168,0.499-0.253,0.795-0.253c0.285,0,0.547,0.083,0.787,0.246
				c0.239,0.165,0.429,0.402,0.569,0.713c0.141,0.31,0.21,0.682,0.21,1.113C180.232,472.78,180.163,473.164,180.021,473.471z"/>
			<path id="XMLID_954_" style="fill:#B0B0B0;" d="M188.452,472.551c0.233-0.122,0.35-0.385,0.35-0.793
				c0-0.439-0.113-0.87-0.338-1.294c-0.225-0.423-0.564-0.769-1.019-1.035c-0.453-0.268-0.996-0.4-1.628-0.4
				c-0.487,0-0.93,0.078-1.33,0.234c-0.4,0.156-0.737,0.381-1.009,0.674c-0.273,0.293-0.48,0.644-0.623,1.054
				c-0.143,0.408-0.214,0.853-0.214,1.332c0,1.017,0.289,1.822,0.867,2.415c0.577,0.593,1.387,0.891,2.427,0.891
				c0.456,0,0.858-0.06,1.207-0.179c0.352-0.119,0.641-0.268,0.874-0.447c0.231-0.181,0.404-0.368,0.519-0.565
				c0.115-0.196,0.172-0.366,0.172-0.514c0-0.166-0.052-0.294-0.155-0.386c-0.103-0.09-0.237-0.137-0.403-0.137
				c-0.154,0-0.273,0.036-0.356,0.107c-0.202,0.189-0.366,0.34-0.492,0.451c-0.126,0.111-0.265,0.216-0.415,0.312
				c-0.15,0.098-0.305,0.168-0.466,0.215c-0.16,0.044-0.337,0.066-0.531,0.066c-0.289,0-0.553-0.069-0.792-0.213
				c-0.239-0.142-0.432-0.354-0.576-0.635c-0.145-0.281-0.219-0.605-0.222-0.974h3.168
				C187.89,472.731,188.219,472.671,188.452,472.551z M184.297,471.813c0.056-0.547,0.212-0.96,0.472-1.238
				c0.259-0.28,0.59-0.418,0.994-0.418c0.423,0,0.764,0.137,1.024,0.411c0.259,0.275,0.409,0.689,0.448,1.245H184.297z"/>
			<path id="XMLID_952_" style="fill:#B0B0B0;" d="M193.878,472.114c-0.319-0.17-0.729-0.316-1.231-0.439
				c-0.424-0.104-0.756-0.19-0.997-0.262c-0.242-0.069-0.434-0.16-0.576-0.27c-0.143-0.108-0.213-0.247-0.213-0.418
				c0-0.186,0.097-0.342,0.291-0.466c0.194-0.125,0.437-0.187,0.73-0.187c0.286,0,0.511,0.047,0.677,0.142
				c0.166,0.096,0.31,0.223,0.433,0.38c0.151,0.19,0.284,0.332,0.401,0.427c0.116,0.096,0.258,0.143,0.424,0.143
				c0.23,0,0.408-0.061,0.532-0.178c0.124-0.119,0.186-0.272,0.186-0.457c0-0.171-0.058-0.345-0.175-0.523
				c-0.116-0.178-0.286-0.34-0.51-0.485c-0.223-0.147-0.502-0.265-0.837-0.351c-0.333-0.088-0.71-0.131-1.13-0.131
				c-0.535,0-0.99,0.085-1.367,0.259c-0.378,0.172-0.665,0.402-0.858,0.69c-0.194,0.289-0.291,0.597-0.291,0.92
				c0,0.364,0.105,0.671,0.315,0.921c0.21,0.249,0.489,0.45,0.84,0.602c0.35,0.152,0.804,0.298,1.362,0.436
				c0.494,0.119,0.849,0.244,1.065,0.375c0.216,0.131,0.323,0.338,0.323,0.622c0,0.187-0.104,0.352-0.311,0.497
				c-0.208,0.144-0.474,0.216-0.798,0.216c-0.4,0-0.715-0.071-0.947-0.213c-0.232-0.144-0.431-0.357-0.597-0.647
				c-0.082-0.149-0.169-0.267-0.261-0.351c-0.091-0.082-0.221-0.124-0.39-0.124c-0.194,0-0.355,0.064-0.481,0.19
				c-0.128,0.126-0.19,0.277-0.19,0.456c0,0.27,0.099,0.537,0.296,0.805c0.198,0.267,0.505,0.489,0.92,0.667
				c0.415,0.179,0.914,0.267,1.495,0.267c0.609,0,1.127-0.082,1.552-0.246c0.425-0.164,0.747-0.405,0.964-0.725
				c0.218-0.318,0.327-0.701,0.327-1.148c0-0.297-0.082-0.561-0.246-0.792C194.438,472.485,194.197,472.283,193.878,472.114z"/>
			<path id="XMLID_950_" style="fill:#B0B0B0;" d="M196.486,469.04c-0.238,0-0.431,0.081-0.579,0.243
				c-0.149,0.162-0.222,0.404-0.222,0.724v4.636c0,0.316,0.073,0.559,0.222,0.73c0.148,0.17,0.341,0.255,0.579,0.255
				c0.238,0,0.433-0.083,0.588-0.249c0.154-0.166,0.232-0.412,0.232-0.736v-4.683c0-0.289-0.078-0.515-0.232-0.677
				C196.919,469.121,196.724,469.04,196.486,469.04z"/>
			<path id="XMLID_949_" style="fill:#B0B0B0;" d="M196.504,466.701c-0.217,0-0.409,0.073-0.573,0.223
				c-0.165,0.149-0.246,0.337-0.246,0.567c0,0.254,0.08,0.449,0.24,0.587c0.16,0.139,0.353,0.209,0.579,0.209
				c0.217,0,0.405-0.071,0.564-0.212c0.158-0.14,0.238-0.335,0.238-0.584c0-0.258-0.081-0.453-0.244-0.588
				C196.9,466.769,196.714,466.701,196.504,466.701z"/>
			<path id="XMLID_945_" style="fill:#B0B0B0;" d="M203.626,469.04c-0.217,0-0.396,0.077-0.535,0.232
				c-0.139,0.154-0.208,0.372-0.208,0.652v0.221c-0.289-0.376-0.602-0.652-0.938-0.829c-0.336-0.175-0.734-0.264-1.193-0.264
				c-0.384,0-0.736,0.068-1.056,0.204c-0.321,0.137-0.604,0.34-0.849,0.608c-0.245,0.269-0.433,0.6-0.566,0.992
				c-0.133,0.391-0.199,0.83-0.199,1.317c0,0.653,0.108,1.228,0.327,1.727c0.217,0.499,0.529,0.887,0.934,1.163
				c0.406,0.277,0.88,0.416,1.422,0.416c0.45,0,0.84-0.091,1.166-0.272c0.327-0.182,0.615-0.447,0.864-0.797
				c-0.008,0.531-0.02,0.916-0.036,1.155c-0.016,0.24-0.07,0.465-0.164,0.673c-0.093,0.21-0.255,0.374-0.486,0.49
				c-0.231,0.117-0.557,0.175-0.977,0.175c-0.205,0-0.387-0.018-0.545-0.056c-0.159-0.038-0.294-0.095-0.406-0.172
				c-0.112-0.078-0.216-0.17-0.309-0.279c-0.093-0.108-0.183-0.217-0.27-0.324c-0.178-0.209-0.386-0.314-0.624-0.314
				c-0.189,0-0.352,0.062-0.486,0.187c-0.135,0.124-0.202,0.285-0.202,0.483c0,0.262,0.119,0.516,0.357,0.763
				c0.238,0.248,0.576,0.449,1.014,0.605c0.439,0.156,0.938,0.234,1.496,0.234c0.609,0,1.119-0.061,1.528-0.184
				c0.409-0.122,0.741-0.312,0.994-0.563c0.253-0.254,0.438-0.574,0.551-0.961c0.115-0.39,0.173-0.852,0.173-1.39v-4.706
				c0-0.384-0.051-0.679-0.155-0.882C204.146,469.143,203.938,469.04,203.626,469.04z M202.6,473.405
				c-0.151,0.29-0.346,0.508-0.586,0.653c-0.239,0.143-0.493,0.217-0.762,0.217c-0.455,0-0.826-0.168-1.113-0.505
				c-0.287-0.337-0.43-0.834-0.43-1.49c0-0.648,0.139-1.149,0.418-1.501c0.279-0.352,0.649-0.529,1.113-0.529
				c0.475,0,0.857,0.185,1.148,0.554c0.291,0.367,0.436,0.882,0.436,1.542C202.825,472.762,202.749,473.114,202.6,473.405z"/>
			<path id="XMLID_944_" style="fill:#B0B0B0;" d="M210.978,470.107c-0.165-0.339-0.417-0.602-0.753-0.788
				c-0.337-0.186-0.718-0.279-1.146-0.279c-0.44,0-0.828,0.088-1.166,0.264c-0.339,0.177-0.651,0.452-0.935,0.828v-0.195
				c0-0.194-0.034-0.358-0.104-0.493c-0.07-0.134-0.162-0.234-0.276-0.303c-0.115-0.067-0.244-0.101-0.387-0.101
				c-0.233,0-0.417,0.076-0.552,0.228c-0.134,0.153-0.201,0.384-0.201,0.692v4.683c0,0.316,0.076,0.559,0.226,0.73
				c0.15,0.17,0.342,0.255,0.576,0.255c0.241,0,0.438-0.082,0.59-0.246c0.152-0.164,0.228-0.411,0.228-0.739v-2.03
				c0-0.66,0.04-1.111,0.119-1.353c0.11-0.3,0.284-0.537,0.522-0.71c0.237-0.173,0.5-0.258,0.788-0.258
				c0.444,0,0.74,0.142,0.888,0.425c0.148,0.282,0.223,0.691,0.223,1.226v2.7c0,0.316,0.074,0.559,0.226,0.73
				c0.15,0.17,0.346,0.255,0.587,0.255c0.238,0,0.431-0.083,0.579-0.249c0.148-0.166,0.223-0.412,0.223-0.736v-3.016
				c0-0.357-0.017-0.648-0.048-0.878C211.155,470.521,211.085,470.306,210.978,470.107z"/>
			<path id="XMLID_939_" style="fill:#B0B0B0;" d="M217.821,472.551c0.233-0.122,0.35-0.385,0.35-0.793
				c0-0.439-0.113-0.87-0.338-1.294c-0.226-0.423-0.565-0.769-1.019-1.035c-0.453-0.268-0.996-0.4-1.628-0.4
				c-0.487,0-0.93,0.078-1.33,0.234c-0.399,0.156-0.736,0.381-1.009,0.674c-0.274,0.293-0.481,0.644-0.624,1.054
				c-0.142,0.408-0.213,0.853-0.213,1.332c0,1.017,0.289,1.822,0.866,2.415c0.578,0.593,1.387,0.891,2.428,0.891
				c0.455,0,0.858-0.06,1.208-0.179c0.351-0.119,0.64-0.268,0.872-0.447c0.232-0.181,0.405-0.368,0.52-0.565
				s0.172-0.366,0.172-0.514c0-0.166-0.051-0.294-0.154-0.386c-0.103-0.09-0.238-0.137-0.404-0.137
				c-0.154,0-0.273,0.036-0.357,0.107c-0.201,0.189-0.366,0.34-0.492,0.451c-0.128,0.111-0.266,0.216-0.415,0.312
				c-0.151,0.098-0.307,0.168-0.466,0.215c-0.161,0.044-0.338,0.066-0.532,0.066c-0.288,0-0.553-0.069-0.792-0.213
				c-0.239-0.142-0.431-0.354-0.576-0.635c-0.145-0.281-0.218-0.605-0.223-0.974h3.169
				C217.26,472.731,217.588,472.671,217.821,472.551z M213.666,471.813c0.056-0.547,0.212-0.96,0.471-1.238
				c0.259-0.28,0.591-0.418,0.995-0.418c0.424,0,0.765,0.137,1.024,0.411c0.259,0.275,0.409,0.689,0.448,1.245H213.666z"/>
			<path id="XMLID_936_" style="fill:#B0B0B0;" d="M224.206,466.631c-0.245,0-0.434,0.084-0.567,0.255
				c-0.132,0.169-0.199,0.421-0.199,0.753v2.393c-0.304-0.332-0.617-0.579-0.938-0.739c-0.32-0.159-0.714-0.24-1.181-0.24
				c-0.808,0-1.458,0.283-1.953,0.849c-0.495,0.565-0.741,1.355-0.741,2.369c0,0.478,0.062,0.923,0.187,1.335
				c0.124,0.412,0.308,0.77,0.549,1.074c0.241,0.304,0.527,0.539,0.857,0.703c0.33,0.164,0.689,0.246,1.077,0.246
				c0.293,0,0.563-0.04,0.811-0.122c0.247-0.081,0.476-0.199,0.688-0.356c0.211-0.155,0.426-0.359,0.644-0.607v0.16
				c0,0.297,0.072,0.525,0.217,0.686c0.145,0.16,0.328,0.24,0.549,0.24c0.226,0,0.41-0.077,0.552-0.231
				c0.143-0.154,0.213-0.386,0.213-0.694v-7.146c0-0.306-0.065-0.534-0.199-0.69C224.641,466.709,224.452,466.631,224.206,466.631z
				 M223.141,473.471c-0.14,0.307-0.328,0.534-0.564,0.682c-0.235,0.149-0.495,0.224-0.781,0.224c-0.281,0-0.54-0.078-0.776-0.236
				c-0.238-0.154-0.425-0.387-0.562-0.696c-0.137-0.309-0.205-0.682-0.205-1.121c0-0.416,0.064-0.78,0.193-1.096
				c0.129-0.314,0.31-0.556,0.543-0.724c0.233-0.168,0.5-0.253,0.795-0.253c0.285,0,0.547,0.083,0.787,0.246
				c0.239,0.165,0.43,0.402,0.57,0.713c0.141,0.31,0.21,0.682,0.21,1.113C223.352,472.78,223.282,473.164,223.141,473.471z"/>
			<path id="XMLID_933_" style="fill:#B0B0B0;" d="M233.586,469.434c-0.406-0.254-0.877-0.382-1.415-0.382
				c-0.467,0-0.859,0.084-1.175,0.252c-0.317,0.168-0.627,0.411-0.932,0.728v-2.476c0-0.297-0.068-0.524-0.202-0.686
				c-0.135-0.159-0.326-0.239-0.576-0.239c-0.237,0-0.423,0.084-0.555,0.252c-0.133,0.168-0.198,0.416-0.198,0.744v7.075
				c0,0.305,0.068,0.535,0.205,0.692c0.136,0.156,0.319,0.233,0.549,0.233c0.226,0,0.412-0.077,0.558-0.233
				c0.146-0.157,0.22-0.388,0.22-0.692v-0.16c0.178,0.204,0.322,0.36,0.43,0.463c0.109,0.102,0.241,0.203,0.395,0.3
				c0.154,0.098,0.341,0.175,0.561,0.234c0.22,0.06,0.454,0.089,0.704,0.089c0.407,0,0.781-0.082,1.119-0.246
				c0.338-0.164,0.626-0.397,0.864-0.698c0.237-0.3,0.418-0.656,0.543-1.064c0.124-0.41,0.187-0.859,0.187-1.35
				c0-0.666-0.112-1.241-0.336-1.725C234.305,470.06,233.991,469.69,233.586,469.434z M232.796,473.845
				c-0.295,0.354-0.646,0.531-1.053,0.531c-0.479,0-0.866-0.174-1.161-0.521c-0.295-0.346-0.442-0.841-0.442-1.486
				c0-0.439,0.069-0.818,0.208-1.137c0.139-0.318,0.328-0.561,0.57-0.729c0.24-0.168,0.516-0.253,0.825-0.253
				c0.3,0,0.564,0.085,0.79,0.253c0.225,0.168,0.399,0.406,0.521,0.715c0.123,0.309,0.184,0.677,0.184,1.104
				C233.238,472.983,233.09,473.49,232.796,473.845z"/>
			<path id="XMLID_931_" style="fill:#B0B0B0;" d="M240.529,469.138c-0.112-0.065-0.23-0.098-0.353-0.098
				c-0.171,0-0.302,0.029-0.395,0.089c-0.093,0.059-0.181,0.174-0.264,0.344c-0.083,0.171-0.176,0.406-0.279,0.706l-1.3,3.71
				l-1.372-3.988c-0.091-0.277-0.195-0.489-0.314-0.638c-0.119-0.148-0.295-0.223-0.528-0.223c-0.135,0-0.265,0.035-0.389,0.107
				c-0.124,0.07-0.222,0.166-0.294,0.284c-0.071,0.118-0.107,0.247-0.107,0.386c0,0.13,0.062,0.341,0.185,0.628l1.994,5.021
				l-0.148,0.363c-0.111,0.265-0.209,0.465-0.294,0.601c-0.085,0.138-0.181,0.234-0.288,0.289c-0.106,0.056-0.254,0.083-0.44,0.083
				c-0.074,0-0.163-0.012-0.266-0.035c-0.083-0.024-0.168-0.036-0.256-0.036c-0.221,0-0.388,0.051-0.5,0.151
				c-0.113,0.101-0.169,0.245-0.169,0.431c0,0.272,0.119,0.461,0.356,0.564c0.237,0.103,0.593,0.153,1.068,0.153
				c0.487,0,0.873-0.073,1.161-0.223c0.287-0.147,0.517-0.361,0.691-0.638c0.174-0.277,0.353-0.659,0.535-1.146l2.113-5.531
				c0.051-0.143,0.095-0.283,0.13-0.421c0.037-0.14,0.061-0.246,0.078-0.321c0-0.123-0.032-0.239-0.093-0.35
				C240.729,469.291,240.642,469.203,240.529,469.138z"/>
		</g>
		<g id="XMLID_365_">
			<g id="XMLID_380_">
				<path id="XMLID_928_" style="fill:#B0B0B0;" d="M262.93,466.626c-0.533,0-0.954,0.068-1.26,0.204
					c-0.308,0.137-0.527,0.353-0.654,0.652c-0.13,0.301-0.191,0.702-0.191,1.211v0.486h-0.387c-0.543,0-0.815,0.192-0.815,0.582
					c0,0.175,0.066,0.316,0.196,0.424c0.132,0.111,0.315,0.164,0.559,0.164h0.446v4.293c0,0.319,0.074,0.563,0.228,0.73
					c0.154,0.17,0.344,0.254,0.573,0.254c0.243,0,0.439-0.084,0.589-0.254c0.155-0.168,0.23-0.411,0.23-0.73v-4.293h0.395
					c0.291,0,0.517-0.036,0.681-0.107c0.166-0.071,0.245-0.24,0.245-0.503c0-0.374-0.307-0.56-0.926-0.56h-0.395v-0.386
					c0-0.321,0.043-0.567,0.122-0.739c0.087-0.172,0.273-0.26,0.565-0.26c0.107,0,0.241,0.014,0.39,0.034
					c0.155,0.026,0.268,0.038,0.33,0.038c0.134,0,0.252-0.055,0.348-0.16c0.101-0.107,0.15-0.235,0.15-0.385
					C264.35,466.855,263.879,466.626,262.93,466.626z"/>
				<path id="XMLID_926_" style="fill:#B0B0B0;" d="M268.089,469.292c-0.32-0.171-0.647-0.256-0.99-0.256
					c-0.342,0-0.61,0.085-0.818,0.256c-0.202,0.171-0.4,0.421-0.593,0.755c-0.014-0.334-0.08-0.584-0.198-0.755
					c-0.119-0.171-0.313-0.256-0.583-0.256c-0.525,0-0.788,0.364-0.788,1.094v4.513c0,0.323,0.078,0.569,0.226,0.733
					c0.149,0.169,0.34,0.251,0.579,0.251c0.236,0,0.432-0.081,0.586-0.247c0.15-0.163,0.233-0.41,0.233-0.737v-1.355
					c0-0.486,0.014-0.899,0.045-1.238c0.033-0.337,0.089-0.631,0.17-0.878c0.084-0.243,0.201-0.426,0.353-0.554
					c0.149-0.122,0.345-0.186,0.582-0.186c0.172,0,0.374,0.036,0.602,0.107c0.227,0.073,0.371,0.112,0.433,0.112
					c0.158,0,0.305-0.063,0.441-0.194c0.135-0.126,0.204-0.292,0.204-0.488C268.571,469.69,268.411,469.463,268.089,469.292z"/>
				<path id="XMLID_922_" style="fill:#B0B0B0;" d="M274.176,472.549c0.232-0.122,0.351-0.386,0.351-0.791
					c0-0.44-0.112-0.87-0.339-1.296c-0.222-0.423-0.565-0.77-1.018-1.033c-0.453-0.271-0.997-0.403-1.629-0.403
					c-0.488,0-0.931,0.078-1.329,0.232c-0.401,0.156-0.735,0.381-1.008,0.675c-0.276,0.295-0.484,0.644-0.624,1.055
					c-0.145,0.41-0.218,0.854-0.218,1.333c0,1.017,0.292,1.823,0.87,2.418c0.576,0.593,1.385,0.889,2.429,0.889
					c0.453,0,0.857-0.061,1.207-0.179c0.349-0.117,0.64-0.269,0.874-0.446c0.232-0.183,0.404-0.368,0.522-0.567
					c0.111-0.194,0.167-0.365,0.167-0.512c0-0.167-0.048-0.294-0.152-0.386c-0.104-0.093-0.237-0.139-0.405-0.139
					c-0.152,0-0.271,0.038-0.355,0.108c-0.202,0.189-0.367,0.34-0.493,0.449c-0.128,0.113-0.264,0.217-0.415,0.313
					c-0.15,0.097-0.308,0.17-0.466,0.213c-0.16,0.048-0.336,0.069-0.531,0.069c-0.29,0-0.552-0.07-0.792-0.212
					c-0.241-0.145-0.432-0.356-0.578-0.636c-0.145-0.28-0.216-0.606-0.222-0.974h3.171
					C273.615,472.73,273.942,472.67,274.176,472.549z M270.021,471.809c0.055-0.545,0.213-0.956,0.472-1.236
					c0.26-0.279,0.592-0.417,0.995-0.417c0.426,0,0.764,0.136,1.024,0.412c0.261,0.273,0.407,0.688,0.446,1.241H270.021z"/>
				<path id="XMLID_919_" style="fill:#B0B0B0;" d="M280.916,472.549c0.232-0.122,0.352-0.386,0.352-0.791
					c0-0.44-0.116-0.87-0.341-1.296c-0.223-0.423-0.564-0.77-1.013-1.033c-0.46-0.271-1.003-0.403-1.634-0.403
					c-0.486,0-0.932,0.078-1.33,0.232c-0.4,0.156-0.736,0.381-1.009,0.675c-0.273,0.295-0.48,0.644-0.622,1.055
					c-0.145,0.41-0.217,0.854-0.217,1.333c0,1.017,0.29,1.823,0.867,2.418c0.58,0.593,1.387,0.889,2.43,0.889
					c0.453,0,0.859-0.061,1.208-0.179c0.347-0.117,0.641-0.269,0.872-0.446c0.234-0.183,0.408-0.368,0.518-0.567
					c0.116-0.194,0.171-0.365,0.171-0.512c0-0.167-0.047-0.294-0.15-0.386c-0.104-0.093-0.238-0.139-0.406-0.139
					c-0.151,0-0.271,0.038-0.355,0.108c-0.202,0.189-0.367,0.34-0.492,0.449c-0.128,0.113-0.264,0.217-0.415,0.313
					c-0.152,0.097-0.307,0.17-0.469,0.213c-0.157,0.048-0.335,0.069-0.527,0.069c-0.291,0-0.556-0.07-0.795-0.212
					c-0.238-0.145-0.431-0.356-0.575-0.636c-0.144-0.28-0.218-0.606-0.222-0.974h3.17
					C280.354,472.73,280.682,472.67,280.916,472.549z M276.762,471.809c0.053-0.545,0.211-0.956,0.47-1.236
					c0.26-0.279,0.592-0.417,0.995-0.417c0.425,0,0.764,0.136,1.026,0.412c0.257,0.273,0.407,0.688,0.446,1.241H276.762z"/>
				<path id="XMLID_390_" style="fill:#B0B0B0;" d="M286.927,469.434c-0.42-0.256-0.883-0.386-1.38-0.386
					c-0.414,0-0.789,0.09-1.113,0.267c-0.331,0.177-0.648,0.453-0.952,0.828v-0.195c0-0.296-0.071-0.519-0.218-0.677
					c-0.144-0.156-0.329-0.234-0.561-0.234c-0.232,0-0.418,0.078-0.553,0.228c-0.133,0.154-0.2,0.382-0.2,0.691v6.995
					c0,0.354,0.052,0.619,0.146,0.807c0.102,0.183,0.301,0.274,0.606,0.274c0.518,0,0.778-0.359,0.778-1.068v-2.434
					c0.286,0.358,0.586,0.635,0.9,0.816c0.313,0.188,0.704,0.28,1.165,0.28c0.386,0,0.742-0.076,1.08-0.228
					c0.334-0.152,0.622-0.372,0.868-0.653c0.245-0.283,0.44-0.632,0.58-1.05c0.14-0.419,0.21-0.878,0.21-1.376
					c0-0.677-0.122-1.261-0.366-1.758C287.675,470.068,287.346,469.692,286.927,469.434z M286.45,473.438
					c-0.137,0.311-0.32,0.546-0.552,0.704c-0.23,0.153-0.48,0.232-0.748,0.232c-0.454,0-0.828-0.179-1.133-0.536
					c-0.307-0.358-0.459-0.863-0.459-1.504c0-0.687,0.154-1.204,0.461-1.559c0.307-0.35,0.685-0.526,1.131-0.526
					c0.281,0,0.54,0.083,0.77,0.247c0.229,0.163,0.411,0.397,0.542,0.705c0.13,0.306,0.196,0.674,0.196,1.101
					C286.658,472.745,286.588,473.123,286.45,473.438z"/>
				<path id="XMLID_389_" style="fill:#B0B0B0;" d="M289.9,469.036c-0.238,0-0.428,0.08-0.58,0.245
					c-0.145,0.162-0.222,0.402-0.222,0.722v4.642c0,0.313,0.076,0.555,0.222,0.728c0.152,0.17,0.342,0.254,0.58,0.254
					c0.237,0,0.432-0.082,0.588-0.251c0.154-0.164,0.231-0.41,0.231-0.732v-4.688c0-0.286-0.077-0.513-0.231-0.675
					C290.332,469.116,290.138,469.036,289.9,469.036z"/>
				<path id="XMLID_388_" style="fill:#B0B0B0;" d="M289.917,466.696c-0.217,0-0.407,0.076-0.571,0.223
					c-0.166,0.149-0.247,0.339-0.247,0.568c0,0.253,0.08,0.446,0.242,0.586c0.158,0.138,0.35,0.209,0.576,0.209
					c0.22,0,0.408-0.071,0.566-0.21c0.157-0.14,0.236-0.335,0.236-0.585c0-0.257-0.082-0.454-0.244-0.591
					C290.314,466.764,290.13,466.696,289.917,466.696z"/>
				<path id="XMLID_387_" style="fill:#B0B0B0;" d="M297.258,474.066l-1.662-2.614l0.86-0.788c0.438-0.396,0.659-0.715,0.659-0.951
					c0-0.192-0.068-0.354-0.2-0.483c-0.138-0.128-0.306-0.193-0.509-0.193c-0.169,0-0.313,0.044-0.432,0.131
					c-0.121,0.086-0.29,0.251-0.517,0.486l-1.822,1.913v-3.933c0-0.329-0.074-0.582-0.221-0.751
					c-0.147-0.171-0.344-0.257-0.593-0.257c-0.256,0-0.457,0.093-0.596,0.283c-0.136,0.188-0.207,0.462-0.207,0.82v6.913
					c0,0.323,0.073,0.569,0.215,0.733c0.141,0.169,0.339,0.251,0.588,0.251c0.213,0,0.405-0.084,0.566-0.254
					c0.164-0.168,0.247-0.407,0.247-0.719v-1.29l0.88-0.83l1.428,2.352c0.182,0.278,0.329,0.472,0.436,0.58
					c0.106,0.109,0.261,0.16,0.458,0.16c0.227,0,0.413-0.073,0.554-0.222c0.142-0.151,0.214-0.351,0.214-0.609
					c0-0.089-0.029-0.189-0.082-0.288C297.47,474.406,297.379,474.262,297.258,474.066z"/>
				<path id="XMLID_386_" style="fill:#B0B0B0;" d="M299.449,473.84c-0.25,0-0.458,0.087-0.629,0.261
					c-0.171,0.174-0.257,0.382-0.257,0.623c0,0.286,0.091,0.51,0.268,0.665c0.18,0.159,0.39,0.238,0.634,0.238
					c0.237,0,0.444-0.079,0.624-0.241c0.174-0.157,0.264-0.38,0.264-0.662c0-0.243-0.09-0.454-0.264-0.626
					C299.909,473.927,299.698,473.84,299.449,473.84z"/>
				<path id="XMLID_385_" style="fill:#B0B0B0;" d="M306.835,472.913c-0.166,0-0.308,0.054-0.422,0.156
					c-0.113,0.104-0.219,0.245-0.318,0.427c-0.177,0.31-0.381,0.538-0.616,0.689c-0.23,0.15-0.509,0.225-0.834,0.225
					c-0.24,0-0.463-0.045-0.666-0.141c-0.201-0.094-0.372-0.229-0.516-0.409c-0.144-0.18-0.252-0.398-0.325-0.652
					c-0.075-0.256-0.114-0.537-0.114-0.842c0-0.647,0.146-1.161,0.439-1.533c0.293-0.375,0.682-0.561,1.158-0.561
					c0.333,0,0.606,0.074,0.82,0.226c0.219,0.148,0.424,0.375,0.623,0.674c0.108,0.158,0.209,0.27,0.299,0.339
					c0.09,0.068,0.201,0.104,0.338,0.104c0.202,0,0.377-0.068,0.524-0.203c0.143-0.135,0.214-0.3,0.214-0.491
					c0-0.192-0.062-0.397-0.192-0.617c-0.127-0.218-0.314-0.424-0.556-0.62c-0.245-0.192-0.54-0.353-0.891-0.475
					c-0.353-0.123-0.736-0.184-1.156-0.184c-0.674,0-1.26,0.139-1.747,0.418c-0.485,0.279-0.858,0.674-1.113,1.184
					c-0.259,0.511-0.387,1.098-0.387,1.765c0,0.981,0.281,1.765,0.841,2.35c0.563,0.582,1.345,0.876,2.349,0.876
					c0.469,0,0.894-0.065,1.269-0.192c0.377-0.125,0.688-0.294,0.935-0.502c0.248-0.207,0.434-0.425,0.553-0.656
					c0.122-0.229,0.183-0.445,0.183-0.646c0-0.169-0.067-0.331-0.199-0.482C307.198,472.99,307.033,472.913,306.835,472.913z"/>
				<path id="XMLID_382_" style="fill:#B0B0B0;" d="M313.646,469.949c-0.288-0.29-0.628-0.518-1.026-0.674
					c-0.4-0.161-0.847-0.239-1.336-0.239c-0.482,0-0.924,0.078-1.326,0.234c-0.398,0.158-0.737,0.38-1.02,0.669
					c-0.281,0.288-0.498,0.637-0.649,1.045c-0.146,0.408-0.224,0.857-0.224,1.349c0,0.485,0.076,0.93,0.22,1.332
					c0.151,0.401,0.368,0.75,0.656,1.048c0.285,0.292,0.627,0.521,1.017,0.676c0.393,0.159,0.835,0.239,1.326,0.239
					c0.492,0,0.937-0.08,1.336-0.234c0.394-0.157,0.735-0.382,1.02-0.675c0.286-0.291,0.501-0.642,0.656-1.05
					c0.146-0.408,0.222-0.854,0.222-1.336c0-0.488-0.075-0.932-0.221-1.339C314.148,470.593,313.934,470.246,313.646,469.949z
					 M312.455,473.865c-0.29,0.372-0.682,0.558-1.171,0.558c-0.324,0-0.604-0.086-0.846-0.253c-0.24-0.168-0.424-0.409-0.554-0.728
					c-0.13-0.316-0.193-0.685-0.193-1.108c0-0.429,0.066-0.803,0.197-1.124c0.131-0.321,0.314-0.564,0.556-0.728
					c0.242-0.163,0.521-0.246,0.84-0.246c0.489,0,0.881,0.183,1.171,0.555c0.289,0.368,0.436,0.882,0.436,1.543
					C312.891,472.983,312.744,473.496,312.455,473.865z"/>
				<path id="XMLID_381_" style="fill:#B0B0B0;" d="M323.569,469.31c-0.32-0.172-0.705-0.262-1.146-0.262
					c-0.381,0-0.726,0.081-1.038,0.241c-0.314,0.161-0.607,0.408-0.882,0.738c-0.191-0.326-0.431-0.572-0.725-0.735
					c-0.292-0.162-0.642-0.244-1.048-0.244c-0.395,0-0.748,0.079-1.07,0.241c-0.319,0.156-0.62,0.403-0.903,0.738v-0.153
					c0-0.262-0.073-0.467-0.222-0.616c-0.15-0.145-0.334-0.222-0.557-0.222c-0.226,0-0.412,0.078-0.556,0.239
					c-0.14,0.156-0.21,0.389-0.21,0.694v4.636c0,0.336,0.078,0.592,0.235,0.765c0.156,0.171,0.358,0.258,0.605,0.258
					c0.248,0,0.447-0.087,0.603-0.258c0.149-0.173,0.227-0.429,0.227-0.765v-2.189c0-0.683,0.086-1.206,0.253-1.566
					c0.169-0.369,0.517-0.55,1.048-0.55c0.264,0,0.459,0.071,0.582,0.22c0.121,0.142,0.197,0.33,0.226,0.552
					c0.027,0.226,0.04,0.544,0.04,0.952v2.581c0,0.342,0.078,0.594,0.232,0.767c0.148,0.17,0.35,0.255,0.595,0.255
					c0.254,0,0.454-0.085,0.61-0.255c0.156-0.174,0.23-0.426,0.23-0.767v-2.153c0-0.694,0.063-1.178,0.178-1.452
					c0.109-0.21,0.259-0.384,0.45-0.508c0.192-0.125,0.395-0.191,0.609-0.191c0.264,0,0.463,0.071,0.596,0.215
					c0.128,0.142,0.209,0.318,0.238,0.528c0.029,0.21,0.044,0.486,0.044,0.836v2.726c0,0.336,0.078,0.592,0.234,0.765
					c0.157,0.171,0.356,0.258,0.604,0.258c0.252,0,0.458-0.085,0.611-0.255c0.154-0.174,0.229-0.426,0.229-0.767v-3.163
					c0-0.629-0.068-1.091-0.206-1.386C324.128,469.734,323.889,469.484,323.569,469.31z"/>
			</g>
			<g id="XMLID_366_">
				<path id="XMLID_379_" style="fill:#B0B0B0;" d="M245.273,471.94c-0.001-0.003-0.001-0.006-0.001-0.011
					C245.272,471.935,245.272,471.938,245.273,471.94z"/>
				<path id="XMLID_378_" style="fill:#B0B0B0;" d="M245.355,472.458c0.001,0,0.001,0,0.001,0c-0.03-0.147-0.055-0.294-0.073-0.438
					C245.301,472.166,245.326,472.314,245.355,472.458z"/>
				<path id="XMLID_377_" style="fill:#B0B0B0;" d="M245.892,473.963c-0.004-0.007-0.007-0.014-0.011-0.021
					C245.885,473.949,245.888,473.956,245.892,473.963z"/>
				<path id="XMLID_376_" style="fill:#B0B0B0;" d="M245.84,473.862c-0.014-0.027-0.027-0.056-0.04-0.084
					C245.813,473.808,245.826,473.835,245.84,473.862z"/>
				<path id="XMLID_375_" style="fill:#B0B0B0;" d="M245.506,473.038c0.079,0.25,0.175,0.492,0.285,0.724
					c-0.113-0.236-0.206-0.479-0.284-0.724H245.506z"/>
				<path id="XMLID_374_" style="fill:#B0B0B0;" d="M250.736,465.178l-0.076-0.259c0.299-0.063,0.523-0.329,0.523-0.646
					c0-0.363-0.296-0.659-0.66-0.659c-0.365,0-0.66,0.296-0.66,0.659c0,0.317,0.225,0.583,0.522,0.646l0.084,0.289
					c-1.021,0.141-1.834,0.539-1.834,0.539l0.144,0.44c0.617-0.206,1.153-0.331,1.639-0.383c0.476-0.051,0.834-0.073,1.126-0.073
					c0.314,0,0.545,0.025,0.81,0.069l0.075-0.477C252.43,465.324,251.697,465.1,250.736,465.178z"/>
				<path id="XMLID_373_" style="fill:#B0B0B0;" d="M245.453,467.685c-0.017,0.024-0.497,0.466-0.876,1.28
					c-0.016-0.025-0.035-0.051-0.056-0.074c-0.114-0.124-0.273-0.188-0.474-0.185c-0.003,0-0.006,0-0.01,0
					c-0.125,0-0.21-0.041-0.266-0.092c0.056-0.07,0.089-0.16,0.089-0.258c0-0.23-0.188-0.419-0.419-0.419
					c-0.23,0-0.418,0.189-0.418,0.419c0,0.231,0.188,0.417,0.418,0.417c0.037,0,0.071-0.005,0.105-0.012
					c0.102,0.113,0.266,0.213,0.504,0.208c0.123-0.001,0.214,0.031,0.273,0.098c0.07,0.075,0.093,0.185,0.1,0.267
					c0,0.002,0,0.004-0.002,0.004c-0.272,0.743-0.194,1.668-0.194,1.668l0.661,0.025c0.014-0.336,0.062-0.926,0.232-1.393
					c0.329-0.906,0.741-1.473,0.758-1.496l0.003-0.005c0.024-0.031,0.047-0.061,0.071-0.089l-0.196-0.142L245.453,467.685z"/>
				<path id="XMLID_372_" style="fill:#B0B0B0;" d="M257.294,466.284c-0.23,0-0.419,0.186-0.419,0.417
					c0,0.037,0.006,0.071,0.015,0.103c-0.114,0.105-0.214,0.268-0.21,0.507c0.002,0.123-0.03,0.212-0.097,0.273
					c-0.053,0.047-0.119,0.072-0.185,0.088c-0.492-0.689-1.098-1.109-1.098-1.109l-0.474,0.509c0.358,0.326,0.725,0.733,1.08,1.243
					c0.246,0.352,0.499,0.807,0.71,1.259l0.64-0.304c0,0-0.292-0.722-0.703-1.369c0.071-0.025,0.143-0.064,0.206-0.12
					c0.125-0.113,0.188-0.272,0.184-0.474c-0.001-0.13,0.041-0.218,0.093-0.275c0.071,0.054,0.16,0.089,0.258,0.089
					c0.232,0,0.418-0.188,0.418-0.419C257.712,466.471,257.525,466.284,257.294,466.284z"/>
				<path id="XMLID_371_" style="fill:#B0B0B0;" d="M255.633,472.034c-0.88,0.429-2.33,0.996-4.236,1.262
					c-0.749,0.104-1.475,0.143-2.143,0.143c-0.869,0-1.637-0.065-2.227-0.14c-0.672-0.085-1.198-0.188-1.52-0.261
					c0.078,0.244,0.171,0.487,0.284,0.724c0.002,0.006,0.005,0.013,0.008,0.017c0.013,0.028,0.027,0.057,0.04,0.084
					c0.014,0.027,0.027,0.055,0.041,0.079c0.004,0.008,0.007,0.015,0.011,0.021c0.189,0.356,0.417,0.684,0.675,0.968
					c0.899,0.984,1.816,1.139,1.825,1.141l0.015,0.002l0.013,0.005c0.009,0.003,0.821,0.265,2.057,0.265
					c1.215,0,2.409-0.244,3.545-0.729c0.842-0.431,1.639-1.085,2.033-1.668c0.305-0.452,0.526-0.934,0.656-1.434
					c0.069-0.267,0.124-0.692,0.092-1.141C256.555,471.539,256.163,471.776,255.633,472.034z"/>
				<path id="XMLID_367_" style="fill:#B0B0B0;" d="M252.322,466.152c-0.265-0.044-0.477-0.068-0.777-0.068
					c-0.279,0-0.626,0.022-1.088,0.07c-0.465,0.049-0.982,0.171-1.583,0.373c-0.842,0.282-1.603,0.725-2.204,1.279l-0.02,0.02
					c-0.089,0.081-0.274,0.254-0.488,0.525c-0.025,0.037-0.408,0.578-0.709,1.407c-0.226,0.622-0.216,1.527-0.216,1.537v0.002
					c0,0.212,0.013,0.423,0.036,0.632c0,0.005,0,0.008,0.001,0.011c0.002,0.027,0.007,0.053,0.01,0.08
					c0.018,0.144,0.043,0.291,0.074,0.438c0.438,0.112,3.048,0.721,5.966,0.314c1.828-0.255,3.218-0.795,4.061-1.204
					c0.701-0.34,1.151-0.647,1.325-0.773c-0.174-0.643-0.651-1.65-1.089-2.279C254.367,466.726,253.016,466.267,252.322,466.152z
					 M248.679,471.41c-0.971,0-1.759-0.786-1.759-1.759c0-0.972,0.788-1.76,1.759-1.76c0.973,0,1.761,0.788,1.761,1.76
					C250.439,470.624,249.651,471.41,248.679,471.41z M253.828,470.113c-0.601,0-1.088-0.488-1.088-1.09
					c0-0.602,0.487-1.089,1.088-1.089s1.09,0.487,1.09,1.089C254.918,469.625,254.429,470.113,253.828,470.113z"/>
			</g>
		</g>
	</g>
</g>
</svg>
